<svg width="296" height="192" viewBox="0 0 296 192" fill="none" xmlns="http://www.w3.org/2000/svg">
<g clip-path="url(#clip0_304_994)">
<rect width="10" height="10" rx="5" fill="#0377FF" fill-opacity="0.5"/>
<rect x="26" width="10" height="10" rx="5" fill="#0377FF" fill-opacity="0.5"/>
<rect x="52" width="10" height="10" rx="5" fill="#0377FF" fill-opacity="0.5"/>
<rect x="78" width="10" height="10" rx="5" fill="#0377FF" fill-opacity="0.5"/>
<rect x="104" width="10" height="10" rx="5" fill="#0377FF" fill-opacity="0.5"/>
<rect x="130" width="10" height="10" rx="5" fill="#0377FF" fill-opacity="0.5"/>
<rect x="156" width="10" height="10" rx="5" fill="#0377FF" fill-opacity="0.5"/>
<rect x="182" width="10" height="10" rx="5" fill="#0377FF" fill-opacity="0.5"/>
<rect x="208" width="10" height="10" rx="5" fill="#0377FF" fill-opacity="0.5"/>
<rect x="234" width="10" height="10" rx="5" fill="#0377FF" fill-opacity="0.5"/>
<rect x="260" width="10" height="10" rx="5" fill="#0377FF" fill-opacity="0.5"/>
<rect x="286" width="10" height="10" rx="5" fill="#0377FF" fill-opacity="0.5"/>
</g>
<g clip-path="url(#clip1_304_994)">
<rect y="26" width="10" height="10" rx="5" fill="#0377FF" fill-opacity="0.5"/>
<rect x="26" y="26" width="10" height="10" rx="5" fill="#0377FF" fill-opacity="0.5"/>
<rect x="52" y="26" width="10" height="10" rx="5" fill="#0377FF" fill-opacity="0.5"/>
<rect x="78" y="26" width="10" height="10" rx="5" fill="#0377FF" fill-opacity="0.5"/>
<rect x="104" y="26" width="10" height="10" rx="5" fill="#0377FF" fill-opacity="0.5"/>
<rect x="130" y="26" width="10" height="10" rx="5" fill="#0377FF" fill-opacity="0.5"/>
<rect x="156" y="26" width="10" height="10" rx="5" fill="#0377FF" fill-opacity="0.5"/>
<rect x="182" y="26" width="10" height="10" rx="5" fill="#0377FF" fill-opacity="0.5"/>
<rect x="208" y="26" width="10" height="10" rx="5" fill="#0377FF" fill-opacity="0.5"/>
<rect x="234" y="26" width="10" height="10" rx="5" fill="#0377FF" fill-opacity="0.5"/>
<rect x="260" y="26" width="10" height="10" rx="5" fill="#0377FF" fill-opacity="0.5"/>
<rect x="286" y="26" width="10" height="10" rx="5" fill="#0377FF" fill-opacity="0.5"/>
</g>
<g clip-path="url(#clip2_304_994)">
<rect y="52" width="10" height="10" rx="5" fill="#0377FF" fill-opacity="0.5"/>
<rect x="26" y="52" width="10" height="10" rx="5" fill="#0377FF" fill-opacity="0.5"/>
<rect x="52" y="52" width="10" height="10" rx="5" fill="#0377FF" fill-opacity="0.5"/>
<rect x="78" y="52" width="10" height="10" rx="5" fill="#0377FF" fill-opacity="0.5"/>
<rect x="104" y="52" width="10" height="10" rx="5" fill="#0377FF" fill-opacity="0.5"/>
<rect x="130" y="52" width="10" height="10" rx="5" fill="#0377FF" fill-opacity="0.5"/>
<rect x="156" y="52" width="10" height="10" rx="5" fill="#0377FF" fill-opacity="0.5"/>
<rect x="182" y="52" width="10" height="10" rx="5" fill="#0377FF" fill-opacity="0.5"/>
<rect x="208" y="52" width="10" height="10" rx="5" fill="#0377FF" fill-opacity="0.5"/>
<rect x="234" y="52" width="10" height="10" rx="5" fill="#0377FF" fill-opacity="0.5"/>
<rect x="260" y="52" width="10" height="10" rx="5" fill="#0377FF" fill-opacity="0.5"/>
<rect x="286" y="52" width="10" height="10" rx="5" fill="#0377FF" fill-opacity="0.5"/>
</g>
<g clip-path="url(#clip3_304_994)">
<rect y="78" width="10" height="10" rx="5" fill="#0377FF" fill-opacity="0.5"/>
<rect x="26" y="78" width="10" height="10" rx="5" fill="#0377FF" fill-opacity="0.5"/>
<rect x="52" y="78" width="10" height="10" rx="5" fill="#0377FF" fill-opacity="0.5"/>
<rect x="78" y="78" width="10" height="10" rx="5" fill="#0377FF" fill-opacity="0.5"/>
<rect x="104" y="78" width="10" height="10" rx="5" fill="#0377FF" fill-opacity="0.5"/>
<rect x="130" y="78" width="10" height="10" rx="5" fill="#0377FF" fill-opacity="0.5"/>
<rect x="156" y="78" width="10" height="10" rx="5" fill="#0377FF" fill-opacity="0.5"/>
<rect x="182" y="78" width="10" height="10" rx="5" fill="#0377FF" fill-opacity="0.5"/>
<rect x="208" y="78" width="10" height="10" rx="5" fill="#0377FF" fill-opacity="0.5"/>
<rect x="234" y="78" width="10" height="10" rx="5" fill="#0377FF" fill-opacity="0.5"/>
<rect x="260" y="78" width="10" height="10" rx="5" fill="#0377FF" fill-opacity="0.5"/>
<rect x="286" y="78" width="10" height="10" rx="5" fill="#0377FF" fill-opacity="0.5"/>
</g>
<g clip-path="url(#clip4_304_994)">
<rect y="104" width="10" height="10" rx="5" fill="#0377FF" fill-opacity="0.5"/>
<rect x="26" y="104" width="10" height="10" rx="5" fill="#0377FF" fill-opacity="0.5"/>
<rect x="52" y="104" width="10" height="10" rx="5" fill="#0377FF" fill-opacity="0.5"/>
<rect x="78" y="104" width="10" height="10" rx="5" fill="#0377FF" fill-opacity="0.5"/>
<rect x="104" y="104" width="10" height="10" rx="5" fill="#0377FF" fill-opacity="0.5"/>
<rect x="130" y="104" width="10" height="10" rx="5" fill="#0377FF" fill-opacity="0.5"/>
<rect x="156" y="104" width="10" height="10" rx="5" fill="#0377FF" fill-opacity="0.5"/>
<rect x="182" y="104" width="10" height="10" rx="5" fill="#0377FF" fill-opacity="0.5"/>
<rect x="208" y="104" width="10" height="10" rx="5" fill="#0377FF" fill-opacity="0.5"/>
<rect x="234" y="104" width="10" height="10" rx="5" fill="#0377FF" fill-opacity="0.5"/>
<rect x="260" y="104" width="10" height="10" rx="5" fill="#0377FF" fill-opacity="0.5"/>
<rect x="286" y="104" width="10" height="10" rx="5" fill="#0377FF" fill-opacity="0.5"/>
</g>
<g clip-path="url(#clip5_304_994)">
<rect y="130" width="10" height="10" rx="5" fill="#0377FF" fill-opacity="0.5"/>
<rect x="26" y="130" width="10" height="10" rx="5" fill="#0377FF" fill-opacity="0.5"/>
<rect x="52" y="130" width="10" height="10" rx="5" fill="#0377FF" fill-opacity="0.5"/>
<rect x="78" y="130" width="10" height="10" rx="5" fill="#0377FF" fill-opacity="0.5"/>
<rect x="104" y="130" width="10" height="10" rx="5" fill="#0377FF" fill-opacity="0.5"/>
<rect x="130" y="130" width="10" height="10" rx="5" fill="#0377FF" fill-opacity="0.5"/>
<rect x="156" y="130" width="10" height="10" rx="5" fill="#0377FF" fill-opacity="0.5"/>
<rect x="182" y="130" width="10" height="10" rx="5" fill="#0377FF" fill-opacity="0.5"/>
<rect x="208" y="130" width="10" height="10" rx="5" fill="#0377FF" fill-opacity="0.5"/>
<rect x="234" y="130" width="10" height="10" rx="5" fill="#0377FF" fill-opacity="0.5"/>
<rect x="260" y="130" width="10" height="10" rx="5" fill="#0377FF" fill-opacity="0.5"/>
<rect x="286" y="130" width="10" height="10" rx="5" fill="#0377FF" fill-opacity="0.5"/>
</g>
<g clip-path="url(#clip6_304_994)">
<rect y="156" width="10" height="10" rx="5" fill="#0377FF" fill-opacity="0.5"/>
<rect x="26" y="156" width="10" height="10" rx="5" fill="#0377FF" fill-opacity="0.5"/>
<rect x="52" y="156" width="10" height="10" rx="5" fill="#0377FF" fill-opacity="0.5"/>
<rect x="78" y="156" width="10" height="10" rx="5" fill="#0377FF" fill-opacity="0.5"/>
<rect x="104" y="156" width="10" height="10" rx="5" fill="#0377FF" fill-opacity="0.5"/>
<rect x="130" y="156" width="10" height="10" rx="5" fill="#0377FF" fill-opacity="0.5"/>
<rect x="156" y="156" width="10" height="10" rx="5" fill="#0377FF" fill-opacity="0.5"/>
<rect x="182" y="156" width="10" height="10" rx="5" fill="#0377FF" fill-opacity="0.5"/>
<rect x="208" y="156" width="10" height="10" rx="5" fill="#0377FF" fill-opacity="0.5"/>
<rect x="234" y="156" width="10" height="10" rx="5" fill="#0377FF" fill-opacity="0.5"/>
<rect x="260" y="156" width="10" height="10" rx="5" fill="#0377FF" fill-opacity="0.5"/>
<rect x="286" y="156" width="10" height="10" rx="5" fill="#0377FF" fill-opacity="0.5"/>
</g>
<g clip-path="url(#clip7_304_994)">
<rect y="182" width="10" height="10" rx="5" fill="#0377FF" fill-opacity="0.5"/>
<rect x="26" y="182" width="10" height="10" rx="5" fill="#0377FF" fill-opacity="0.5"/>
<rect x="52" y="182" width="10" height="10" rx="5" fill="#0377FF" fill-opacity="0.5"/>
<rect x="78" y="182" width="10" height="10" rx="5" fill="#0377FF" fill-opacity="0.5"/>
<rect x="104" y="182" width="10" height="10" rx="5" fill="#0377FF" fill-opacity="0.5"/>
<rect x="130" y="182" width="10" height="10" rx="5" fill="#0377FF" fill-opacity="0.5"/>
<rect x="156" y="182" width="10" height="10" rx="5" fill="#0377FF" fill-opacity="0.5"/>
<rect x="182" y="182" width="10" height="10" rx="5" fill="#0377FF" fill-opacity="0.5"/>
<rect x="208" y="182" width="10" height="10" rx="5" fill="#0377FF" fill-opacity="0.5"/>
<rect x="234" y="182" width="10" height="10" rx="5" fill="#0377FF" fill-opacity="0.5"/>
<rect x="260" y="182" width="10" height="10" rx="5" fill="#0377FF" fill-opacity="0.5"/>
<rect x="286" y="182" width="10" height="10" rx="5" fill="#0377FF" fill-opacity="0.5"/>
</g>
<defs>
<clipPath id="clip0_304_994">
<rect width="296" height="10" fill="white"/>
</clipPath>
<clipPath id="clip1_304_994">
<rect width="296" height="10" fill="white" transform="translate(0 26)"/>
</clipPath>
<clipPath id="clip2_304_994">
<rect width="296" height="10" fill="white" transform="translate(0 52)"/>
</clipPath>
<clipPath id="clip3_304_994">
<rect width="296" height="10" fill="white" transform="translate(0 78)"/>
</clipPath>
<clipPath id="clip4_304_994">
<rect width="296" height="10" fill="white" transform="translate(0 104)"/>
</clipPath>
<clipPath id="clip5_304_994">
<rect width="296" height="10" fill="white" transform="translate(0 130)"/>
</clipPath>
<clipPath id="clip6_304_994">
<rect width="296" height="10" fill="white" transform="translate(0 156)"/>
</clipPath>
<clipPath id="clip7_304_994">
<rect width="296" height="10" fill="white" transform="translate(0 182)"/>
</clipPath>
</defs>
</svg>
