<svg width="327" height="66" viewBox="0 0 327 66" fill="none" xmlns="http://www.w3.org/2000/svg">
<g opacity="0.5" filter="url(#filter0_f_325_5858)">
<path fill-rule="evenodd" clip-rule="evenodd" d="M554.05 -727.289C597.994 -733.107 639.827 -705.633 674.837 -678.446C707.885 -652.783 725.488 -614.62 746.059 -578.185C768.622 -538.222 802.374 -500.863 801 -454.991C799.582 -407.655 774.723 -361.22 738.641 -330.548C704.411 -301.449 656.08 -301.214 611.721 -294.087C572.711 -287.819 534.764 -286.133 495.619 -291.5C450.326 -297.71 392.795 -290.542 366.226 -327.747C339.192 -365.604 368.306 -417.991 372.185 -464.349C375.129 -499.519 372.224 -534.742 386.26 -567.124C400.481 -599.935 426.338 -624.279 452.206 -648.97C483.824 -679.151 510.718 -721.552 554.05 -727.289Z" fill="#FAFAFA"/>
</g>
<defs>
<filter id="filter0_f_325_5858" x="0.845734" y="-1082.08" width="1154.2" height="1147.79" filterUnits="userSpaceOnUse" color-interpolation-filters="sRGB">
<feFlood flood-opacity="0" result="BackgroundImageFix"/>
<feBlend mode="normal" in="SourceGraphic" in2="BackgroundImageFix" result="shape"/>
<feGaussianBlur stdDeviation="177.001" result="effect1_foregroundBlur_325_5858"/>
</filter>
</defs>
</svg>
