<svg width="192" height="296" viewBox="0 0 192 296" fill="none" xmlns="http://www.w3.org/2000/svg">
<g opacity="0.5">
<g clip-path="url(#clip0_325_5859)">
<rect y="296" width="10" height="10" rx="5" transform="rotate(-90 0 296)" fill="#FAFAFA"/>
<rect y="270" width="10" height="10" rx="5" transform="rotate(-90 0 270)" fill="#FAFAFA"/>
<rect y="244" width="10" height="10" rx="5" transform="rotate(-90 0 244)" fill="#FAFAFA"/>
<rect y="218" width="10" height="10" rx="5" transform="rotate(-90 0 218)" fill="#FAFAFA"/>
<rect y="192" width="10" height="10" rx="5" transform="rotate(-90 0 192)" fill="#FAFAFA"/>
<rect y="166" width="10" height="10" rx="5" transform="rotate(-90 0 166)" fill="#FAFAFA"/>
<rect y="140" width="10" height="10" rx="5" transform="rotate(-90 0 140)" fill="#FAFAFA"/>
<rect y="114" width="10" height="10" rx="5" transform="rotate(-90 0 114)" fill="#FAFAFA"/>
<rect y="88" width="10" height="10" rx="5" transform="rotate(-90 0 88)" fill="#FAFAFA"/>
<rect y="62" width="10" height="10" rx="5" transform="rotate(-90 0 62)" fill="#FAFAFA"/>
<rect y="36" width="10" height="10" rx="5" transform="rotate(-90 0 36)" fill="#FAFAFA"/>
<rect y="10" width="10" height="10" rx="5" transform="rotate(-90 0 10)" fill="#FAFAFA"/>
</g>
<g clip-path="url(#clip1_325_5859)">
<rect x="26" y="296" width="10" height="10" rx="5" transform="rotate(-90 26 296)" fill="#FAFAFA"/>
<rect x="26" y="270" width="10" height="10" rx="5" transform="rotate(-90 26 270)" fill="#FAFAFA"/>
<rect x="26" y="244" width="10" height="10" rx="5" transform="rotate(-90 26 244)" fill="#FAFAFA"/>
<rect x="26" y="218" width="10" height="10" rx="5" transform="rotate(-90 26 218)" fill="#FAFAFA"/>
<rect x="26" y="192" width="10" height="10" rx="5" transform="rotate(-90 26 192)" fill="#FAFAFA"/>
<rect x="26" y="166" width="10" height="10" rx="5" transform="rotate(-90 26 166)" fill="#FAFAFA"/>
<rect x="26" y="140" width="10" height="10" rx="5" transform="rotate(-90 26 140)" fill="#FAFAFA"/>
<rect x="26" y="114" width="10" height="10" rx="5" transform="rotate(-90 26 114)" fill="#FAFAFA"/>
<rect x="26" y="88" width="10" height="10" rx="5" transform="rotate(-90 26 88)" fill="#FAFAFA"/>
<rect x="26" y="62" width="10" height="10" rx="5" transform="rotate(-90 26 62)" fill="#FAFAFA"/>
<rect x="26" y="36" width="10" height="10" rx="5" transform="rotate(-90 26 36)" fill="#FAFAFA"/>
<rect x="26" y="10" width="10" height="10" rx="5" transform="rotate(-90 26 10)" fill="#FAFAFA"/>
</g>
<g clip-path="url(#clip2_325_5859)">
<rect x="52" y="296" width="10" height="10" rx="5" transform="rotate(-90 52 296)" fill="#FAFAFA"/>
<rect x="52" y="270" width="10" height="10" rx="5" transform="rotate(-90 52 270)" fill="#FAFAFA"/>
<rect x="52" y="244" width="10" height="10" rx="5" transform="rotate(-90 52 244)" fill="#FAFAFA"/>
<rect x="52" y="218" width="10" height="10" rx="5" transform="rotate(-90 52 218)" fill="#FAFAFA"/>
<rect x="52" y="192" width="10" height="10" rx="5" transform="rotate(-90 52 192)" fill="#FAFAFA"/>
<rect x="52" y="166" width="10" height="10" rx="5" transform="rotate(-90 52 166)" fill="#FAFAFA"/>
<rect x="52" y="140" width="10" height="10" rx="5" transform="rotate(-90 52 140)" fill="#FAFAFA"/>
<rect x="52" y="114" width="10" height="10" rx="5" transform="rotate(-90 52 114)" fill="#FAFAFA"/>
<rect x="52" y="88" width="10" height="10" rx="5" transform="rotate(-90 52 88)" fill="#FAFAFA"/>
<rect x="52" y="62" width="10" height="10" rx="5" transform="rotate(-90 52 62)" fill="#FAFAFA"/>
<rect x="52" y="36" width="10" height="10" rx="5" transform="rotate(-90 52 36)" fill="#FAFAFA"/>
<rect x="52" y="10" width="10" height="10" rx="5" transform="rotate(-90 52 10)" fill="#FAFAFA"/>
</g>
<g clip-path="url(#clip3_325_5859)">
<rect x="78" y="296" width="10" height="10" rx="5" transform="rotate(-90 78 296)" fill="#FAFAFA"/>
<rect x="78" y="270" width="10" height="10" rx="5" transform="rotate(-90 78 270)" fill="#FAFAFA"/>
<rect x="78" y="244" width="10" height="10" rx="5" transform="rotate(-90 78 244)" fill="#FAFAFA"/>
<rect x="78" y="218" width="10" height="10" rx="5" transform="rotate(-90 78 218)" fill="#FAFAFA"/>
<rect x="78" y="192" width="10" height="10" rx="5" transform="rotate(-90 78 192)" fill="#FAFAFA"/>
<rect x="78" y="166" width="10" height="10" rx="5" transform="rotate(-90 78 166)" fill="#FAFAFA"/>
<rect x="78" y="140" width="10" height="10" rx="5" transform="rotate(-90 78 140)" fill="#FAFAFA"/>
<rect x="78" y="114" width="10" height="10" rx="5" transform="rotate(-90 78 114)" fill="#FAFAFA"/>
<rect x="78" y="88" width="10" height="10" rx="5" transform="rotate(-90 78 88)" fill="#FAFAFA"/>
<rect x="78" y="62" width="10" height="10" rx="5" transform="rotate(-90 78 62)" fill="#FAFAFA"/>
<rect x="78" y="36" width="10" height="10" rx="5" transform="rotate(-90 78 36)" fill="#FAFAFA"/>
<rect x="78" y="10" width="10" height="10" rx="5" transform="rotate(-90 78 10)" fill="#FAFAFA"/>
</g>
<g clip-path="url(#clip4_325_5859)">
<rect x="104" y="296" width="10" height="10" rx="5" transform="rotate(-90 104 296)" fill="#FAFAFA"/>
<rect x="104" y="270" width="10" height="10" rx="5" transform="rotate(-90 104 270)" fill="#FAFAFA"/>
<rect x="104" y="244" width="10" height="10" rx="5" transform="rotate(-90 104 244)" fill="#FAFAFA"/>
<rect x="104" y="218" width="10" height="10" rx="5" transform="rotate(-90 104 218)" fill="#FAFAFA"/>
<rect x="104" y="192" width="10" height="10" rx="5" transform="rotate(-90 104 192)" fill="#FAFAFA"/>
<rect x="104" y="166" width="10" height="10" rx="5" transform="rotate(-90 104 166)" fill="#FAFAFA"/>
<rect x="104" y="140" width="10" height="10" rx="5" transform="rotate(-90 104 140)" fill="#FAFAFA"/>
<rect x="104" y="114" width="10" height="10" rx="5" transform="rotate(-90 104 114)" fill="#FAFAFA"/>
<rect x="104" y="88" width="10" height="10" rx="5" transform="rotate(-90 104 88)" fill="#FAFAFA"/>
<rect x="104" y="62" width="10" height="10" rx="5" transform="rotate(-90 104 62)" fill="#FAFAFA"/>
<rect x="104" y="36" width="10" height="10" rx="5" transform="rotate(-90 104 36)" fill="#FAFAFA"/>
<rect x="104" y="10" width="10" height="10" rx="5" transform="rotate(-90 104 10)" fill="#FAFAFA"/>
</g>
<g clip-path="url(#clip5_325_5859)">
<rect x="130" y="296" width="10" height="10" rx="5" transform="rotate(-90 130 296)" fill="#FAFAFA"/>
<rect x="130" y="270" width="10" height="10" rx="5" transform="rotate(-90 130 270)" fill="#FAFAFA"/>
<rect x="130" y="244" width="10" height="10" rx="5" transform="rotate(-90 130 244)" fill="#FAFAFA"/>
<rect x="130" y="218" width="10" height="10" rx="5" transform="rotate(-90 130 218)" fill="#FAFAFA"/>
<rect x="130" y="192" width="10" height="10" rx="5" transform="rotate(-90 130 192)" fill="#FAFAFA"/>
<rect x="130" y="166" width="10" height="10" rx="5" transform="rotate(-90 130 166)" fill="#FAFAFA"/>
<rect x="130" y="140" width="10" height="10" rx="5" transform="rotate(-90 130 140)" fill="#FAFAFA"/>
<rect x="130" y="114" width="10" height="10" rx="5" transform="rotate(-90 130 114)" fill="#FAFAFA"/>
<rect x="130" y="88" width="10" height="10" rx="5" transform="rotate(-90 130 88)" fill="#FAFAFA"/>
<rect x="130" y="62" width="10" height="10" rx="5" transform="rotate(-90 130 62)" fill="#FAFAFA"/>
<rect x="130" y="36" width="10" height="10" rx="5" transform="rotate(-90 130 36)" fill="#FAFAFA"/>
<rect x="130" y="10" width="10" height="10" rx="5" transform="rotate(-90 130 10)" fill="#FAFAFA"/>
</g>
<g clip-path="url(#clip6_325_5859)">
<rect x="156" y="296" width="10" height="10" rx="5" transform="rotate(-90 156 296)" fill="#FAFAFA"/>
<rect x="156" y="270" width="10" height="10" rx="5" transform="rotate(-90 156 270)" fill="#FAFAFA"/>
<rect x="156" y="244" width="10" height="10" rx="5" transform="rotate(-90 156 244)" fill="#FAFAFA"/>
<rect x="156" y="218" width="10" height="10" rx="5" transform="rotate(-90 156 218)" fill="#FAFAFA"/>
<rect x="156" y="192" width="10" height="10" rx="5" transform="rotate(-90 156 192)" fill="#FAFAFA"/>
<rect x="156" y="166" width="10" height="10" rx="5" transform="rotate(-90 156 166)" fill="#FAFAFA"/>
<rect x="156" y="140" width="10" height="10" rx="5" transform="rotate(-90 156 140)" fill="#FAFAFA"/>
<rect x="156" y="114" width="10" height="10" rx="5" transform="rotate(-90 156 114)" fill="#FAFAFA"/>
<rect x="156" y="88" width="10" height="10" rx="5" transform="rotate(-90 156 88)" fill="#FAFAFA"/>
<rect x="156" y="62" width="10" height="10" rx="5" transform="rotate(-90 156 62)" fill="#FAFAFA"/>
<rect x="156" y="36" width="10" height="10" rx="5" transform="rotate(-90 156 36)" fill="#FAFAFA"/>
<rect x="156" y="10" width="10" height="10" rx="5" transform="rotate(-90 156 10)" fill="#FAFAFA"/>
</g>
<g clip-path="url(#clip7_325_5859)">
<rect x="182" y="296" width="10" height="10" rx="5" transform="rotate(-90 182 296)" fill="#FAFAFA"/>
<rect x="182" y="270" width="10" height="10" rx="5" transform="rotate(-90 182 270)" fill="#FAFAFA"/>
<rect x="182" y="244" width="10" height="10" rx="5" transform="rotate(-90 182 244)" fill="#FAFAFA"/>
<rect x="182" y="218" width="10" height="10" rx="5" transform="rotate(-90 182 218)" fill="#FAFAFA"/>
<rect x="182" y="192" width="10" height="10" rx="5" transform="rotate(-90 182 192)" fill="#FAFAFA"/>
<rect x="182" y="166" width="10" height="10" rx="5" transform="rotate(-90 182 166)" fill="#FAFAFA"/>
<rect x="182" y="140" width="10" height="10" rx="5" transform="rotate(-90 182 140)" fill="#FAFAFA"/>
<rect x="182" y="114" width="10" height="10" rx="5" transform="rotate(-90 182 114)" fill="#FAFAFA"/>
<rect x="182" y="88" width="10" height="10" rx="5" transform="rotate(-90 182 88)" fill="#FAFAFA"/>
<rect x="182" y="62" width="10" height="10" rx="5" transform="rotate(-90 182 62)" fill="#FAFAFA"/>
<rect x="182" y="36" width="10" height="10" rx="5" transform="rotate(-90 182 36)" fill="#FAFAFA"/>
<rect x="182" y="10" width="10" height="10" rx="5" transform="rotate(-90 182 10)" fill="#FAFAFA"/>
</g>
</g>
<defs>
<clipPath id="clip0_325_5859">
<rect width="296" height="10" fill="white" transform="matrix(0 -1 1 0 0 296)"/>
</clipPath>
<clipPath id="clip1_325_5859">
<rect width="296" height="10" fill="white" transform="matrix(0 -1 1 0 26 296)"/>
</clipPath>
<clipPath id="clip2_325_5859">
<rect width="296" height="10" fill="white" transform="matrix(0 -1 1 0 52 296)"/>
</clipPath>
<clipPath id="clip3_325_5859">
<rect width="296" height="10" fill="white" transform="matrix(0 -1 1 0 78 296)"/>
</clipPath>
<clipPath id="clip4_325_5859">
<rect width="296" height="10" fill="white" transform="matrix(0 -1 1 0 104 296)"/>
</clipPath>
<clipPath id="clip5_325_5859">
<rect width="296" height="10" fill="white" transform="matrix(0 -1 1 0 130 296)"/>
</clipPath>
<clipPath id="clip6_325_5859">
<rect width="296" height="10" fill="white" transform="matrix(0 -1 1 0 156 296)"/>
</clipPath>
<clipPath id="clip7_325_5859">
<rect width="296" height="10" fill="white" transform="matrix(0 -1 1 0 182 296)"/>
</clipPath>
</defs>
</svg>
