<svg width="1398" height="393" viewBox="0 0 1398 393" fill="none" xmlns="http://www.w3.org/2000/svg">
<path d="M176.771 20.4931C167.227 10.4029 150.1 9.93371 140.018 19.4862L68.3073 87.3728C67.5119 88.1245 66.8725 89.0257 66.4257 90.0248C65.9789 91.0239 65.7335 92.1013 65.7036 93.1953C65.6736 94.2893 65.8596 95.3785 66.251 96.4006C66.6425 97.4227 67.2316 98.3575 67.9846 99.1517L92.2906 124.827C93.0412 125.624 93.9419 126.265 94.9412 126.714C95.9404 127.162 97.0183 127.408 98.113 127.438C99.2076 127.468 100.297 127.281 101.32 126.888C102.342 126.496 103.276 125.905 104.07 125.15L175.781 57.2631C180.784 52.5164 183.699 45.9776 183.885 39.0831C184.071 32.1886 181.512 25.5023 176.771 20.4931ZM164.324 45.1615L98.6641 107.32L85.8144 93.7463L151.475 31.5878C153.301 29.9352 155.695 29.052 158.156 29.1226C160.618 29.1931 162.957 30.212 164.686 31.9664C166.382 33.7671 167.296 36.166 167.228 38.6385C167.16 41.1111 166.116 43.4563 164.324 45.1615ZM65.0206 118.186C54.6276 112.616 35.8649 117.387 35.4084 134.048C35.1352 144.019 39.1171 150.822 22.2285 158.696C22.2285 158.696 48.7881 178.181 68.0446 159.951C78.948 149.629 81.4028 126.971 65.0206 118.186Z" fill="#EF5769"/>
<g filter="url(#filter0_d_344_8406)">
<path d="M1293.33 175L1240.83 122.5C1236.67 125.833 1231.87 128.472 1226.46 130.417C1221.04 132.361 1215.28 133.333 1209.17 133.333C1194.03 133.333 1181.22 128.089 1170.73 117.6C1160.25 107.111 1155.01 94.3 1155 79.1667C1155 64.0278 1160.24 51.2167 1170.73 40.7333C1181.22 30.25 1194.03 25.0056 1209.17 25C1224.31 25 1237.12 30.2444 1247.6 40.7333C1258.08 51.2222 1263.33 64.0333 1263.33 79.1667C1263.33 85.2778 1262.36 91.0417 1260.42 96.4583C1258.47 101.875 1255.83 106.667 1252.5 110.833L1305 163.333L1293.33 175ZM1209.17 116.667C1219.58 116.667 1228.44 113.019 1235.73 105.725C1243.03 98.4306 1246.67 89.5778 1246.67 79.1667C1246.67 68.75 1243.02 59.8944 1235.72 52.6C1228.43 45.3056 1219.58 41.6611 1209.17 41.6667C1198.75 41.6667 1189.89 45.3139 1182.6 52.6083C1175.31 59.9028 1171.66 68.7556 1171.67 79.1667C1171.67 89.5833 1175.31 98.4389 1182.61 105.733C1189.9 113.028 1198.76 116.672 1209.17 116.667Z" fill="#F4AEB6"/>
<path d="M1215.56 78.667H1204.44V73.1114H1215.56M1215.56 89.7781H1204.44V84.2225H1215.56M1232.22 67.5559H1224.42C1223.16 65.3829 1221.44 63.5216 1219.36 62.1114L1223.89 57.5837L1219.97 53.667L1213.94 59.6948C1211.36 59.0682 1208.67 59.0682 1206.08 59.6948L1200.03 53.667L1196.11 57.5837L1200.61 62.1114C1198.56 63.5281 1196.83 65.3892 1195.58 67.5559H1187.78V73.1114H1193.58C1193.44 74.0281 1193.33 74.9448 1193.33 75.8892V78.667H1187.78V84.2225H1193.33V87.0003C1193.33 87.9448 1193.44 88.8614 1193.58 89.7781H1187.78V95.3337H1195.58C1198.47 100.306 1203.83 103.667 1210 103.667C1216.17 103.667 1221.53 100.306 1224.42 95.3337H1232.22V89.7781H1226.42C1226.56 88.8614 1226.67 87.9448 1226.67 87.0003V84.2225H1232.22V78.667H1226.67V75.8892C1226.67 74.9448 1226.56 74.0281 1226.42 73.1114H1232.22V67.5559Z" fill="#F4AEB6"/>
</g>
<path d="M1008 126.75C1015.18 126.75 1022.07 123.896 1027.15 118.817C1032.23 113.738 1035.08 106.849 1035.08 99.6665H1047.58C1047.58 106.849 1050.44 113.738 1055.52 118.817C1060.6 123.896 1067.48 126.75 1074.67 126.75V139.25C1067.48 139.25 1060.6 142.103 1055.52 147.182C1050.44 152.261 1047.58 159.15 1047.58 166.333H1035.08C1035.08 159.15 1032.23 152.261 1027.15 147.182C1022.07 142.103 1015.18 139.25 1008 139.25V126.75ZM916.333 141.333C916.333 136.913 918.089 132.674 921.215 129.548C924.341 126.422 928.58 124.667 933 124.667H991.333V108H933C924.16 108 915.681 111.512 909.43 117.763C903.179 124.014 899.667 132.493 899.667 141.333V224.666C899.667 233.507 903.179 241.986 909.43 248.237C915.681 254.488 924.16 258 933 258H1033C1041.84 258 1050.32 254.488 1056.57 248.237C1062.82 241.986 1066.33 233.507 1066.33 224.666V183H1049.67V224.666C1049.67 229.087 1047.91 233.326 1044.79 236.452C1041.66 239.577 1037.42 241.333 1033 241.333H933C928.58 241.333 924.341 239.577 921.215 236.452C918.089 233.326 916.333 229.087 916.333 224.666V141.333Z" fill="#C496F7"/>
<path d="M705.889 23.2222H628.111C625.164 23.2222 622.338 24.3928 620.254 26.4765C618.171 28.5603 617 31.3864 617 34.3333V167.667C617 170.613 618.171 173.44 620.254 175.523C622.338 177.607 625.164 178.778 628.111 178.778H705.889C708.836 178.778 711.662 177.607 713.746 175.523C715.829 173.44 717 170.613 717 167.667V34.3333C717 31.3864 715.829 28.5603 713.746 26.4765C711.662 24.3928 708.836 23.2222 705.889 23.2222ZM628.111 34.3333H705.889V134.333H628.111V34.3333ZM628.111 167.667V145.444H705.889V167.667H628.111Z" fill="#3BC48A"/>
<path d="M661.444 151H672.555V162.111H661.444V151Z" fill="#3BC48A"/>
<path d="M261.333 251C258.972 251 256.992 250.2 255.392 248.6C253.792 247 252.994 245.022 253 242.667C253 240.306 253.8 238.325 255.4 236.725C257 235.125 258.978 234.328 261.333 234.333H428C430.361 234.333 432.342 235.133 433.942 236.733C435.542 238.333 436.339 240.311 436.333 242.667C436.333 245.028 435.533 247.008 433.933 248.608C432.333 250.208 430.356 251.006 428 251H261.333ZM278 226C273.417 226 269.492 224.367 266.225 221.1C262.958 217.833 261.328 213.911 261.333 209.333V117.667C261.333 113.083 262.967 109.158 266.233 105.892C269.5 102.625 273.422 100.994 278 101H411.333C415.917 101 419.842 102.633 423.108 105.9C426.375 109.167 428.006 113.089 428 117.667V209.333C428 213.917 426.367 217.842 423.1 221.108C419.833 224.375 415.911 226.006 411.333 226H278ZM278 209.333H411.333V117.667H278V209.333Z" fill="#F7CD52"/>
<path d="M1106.42 243L1118.71 209.4H1125.62L1137.91 243H1131.38L1128.69 235.224H1115.59L1112.85 243H1106.42ZM1117.27 230.424H1127.01L1122.12 216.456L1117.27 230.424ZM1149.11 243.576C1146.14 243.576 1143.83 242.648 1142.2 240.792C1140.6 238.936 1139.8 236.216 1139.8 232.632V219.192H1145.9V232.056C1145.9 234.104 1146.31 235.672 1147.14 236.76C1147.98 237.848 1149.29 238.392 1151.08 238.392C1152.78 238.392 1154.17 237.784 1155.26 236.568C1156.38 235.352 1156.94 233.656 1156.94 231.48V219.192H1163.08V243H1157.66L1157.18 238.968C1156.44 240.376 1155.37 241.496 1153.96 242.328C1152.58 243.16 1150.97 243.576 1149.11 243.576ZM1178.55 243C1176.06 243 1174.06 242.392 1172.55 241.176C1171.05 239.96 1170.3 237.8 1170.3 234.696V224.328H1166.22V219.192H1170.3L1171.02 212.808H1176.44V219.192H1182.87V224.328H1176.44V234.744C1176.44 235.896 1176.68 236.696 1177.16 237.144C1177.67 237.56 1178.54 237.768 1179.75 237.768H1182.73V243H1178.55ZM1197.52 243.576C1195.22 243.576 1193.14 243.048 1191.28 241.992C1189.46 240.936 1188 239.48 1186.92 237.624C1185.86 235.736 1185.33 233.56 1185.33 231.096C1185.33 228.632 1185.88 226.472 1186.96 224.616C1188.05 222.728 1189.51 221.256 1191.33 220.2C1193.19 219.144 1195.27 218.616 1197.57 218.616C1199.84 218.616 1201.89 219.144 1203.72 220.2C1205.57 221.256 1207.03 222.728 1208.08 224.616C1209.17 226.472 1209.72 228.632 1209.72 231.096C1209.72 233.56 1209.17 235.736 1208.08 237.624C1207.03 239.48 1205.57 240.936 1203.72 241.992C1201.86 243.048 1199.8 243.576 1197.52 243.576ZM1197.52 238.248C1199.12 238.248 1200.52 237.656 1201.7 236.472C1202.88 235.256 1203.48 233.464 1203.48 231.096C1203.48 228.728 1202.88 226.952 1201.7 225.768C1200.52 224.552 1199.14 223.944 1197.57 223.944C1195.94 223.944 1194.53 224.552 1193.35 225.768C1192.2 226.952 1191.62 228.728 1191.62 231.096C1191.62 233.464 1192.2 235.256 1193.35 236.472C1194.53 237.656 1195.92 238.248 1197.52 238.248ZM1213.77 243V219.192H1219.19L1219.72 222.408C1220.49 221.256 1221.5 220.344 1222.75 219.672C1224.03 218.968 1225.5 218.616 1227.16 218.616C1230.84 218.616 1233.45 220.04 1234.99 222.888C1235.85 221.576 1237 220.536 1238.44 219.768C1239.91 219 1241.51 218.616 1243.24 218.616C1246.35 218.616 1248.73 219.544 1250.39 221.4C1252.06 223.256 1252.89 225.976 1252.89 229.56V243H1246.75V230.136C1246.75 228.088 1246.35 226.52 1245.55 225.432C1244.78 224.344 1243.58 223.8 1241.95 223.8C1240.28 223.8 1238.94 224.408 1237.91 225.624C1236.92 226.84 1236.43 228.536 1236.43 230.712V243H1230.28V230.136C1230.28 228.088 1229.88 226.52 1229.08 225.432C1228.28 224.344 1227.05 223.8 1225.39 223.8C1223.75 223.8 1222.43 224.408 1221.4 225.624C1220.41 226.84 1219.91 228.536 1219.91 230.712V243H1213.77ZM1265.49 243.576C1263.44 243.576 1261.76 243.256 1260.45 242.616C1259.14 241.944 1258.16 241.064 1257.52 239.976C1256.88 238.888 1256.56 237.688 1256.56 236.376C1256.56 234.168 1257.43 232.376 1259.15 231C1260.88 229.624 1263.47 228.936 1266.93 228.936H1272.98V228.36C1272.98 226.728 1272.51 225.528 1271.59 224.76C1270.66 223.992 1269.51 223.608 1268.13 223.608C1266.88 223.608 1265.79 223.912 1264.87 224.52C1263.94 225.096 1263.36 225.96 1263.14 227.112H1257.14C1257.3 225.384 1257.87 223.88 1258.87 222.6C1259.89 221.32 1261.2 220.344 1262.8 219.672C1264.4 218.968 1266.19 218.616 1268.18 218.616C1271.57 218.616 1274.24 219.464 1276.19 221.16C1278.15 222.856 1279.12 225.256 1279.12 228.36V243H1273.89L1273.31 239.16C1272.61 240.44 1271.62 241.496 1270.34 242.328C1269.09 243.16 1267.47 243.576 1265.49 243.576ZM1266.88 238.776C1268.64 238.776 1270 238.2 1270.96 237.048C1271.95 235.896 1272.58 234.472 1272.83 232.776H1267.6C1265.97 232.776 1264.8 233.08 1264.1 233.688C1263.39 234.264 1263.04 234.984 1263.04 235.848C1263.04 236.776 1263.39 237.496 1264.1 238.008C1264.8 238.52 1265.73 238.776 1266.88 238.776ZM1293.83 243C1291.33 243 1289.33 242.392 1287.83 241.176C1286.32 239.96 1285.57 237.8 1285.57 234.696V224.328H1281.49V219.192H1285.57L1286.29 212.808H1291.71V219.192H1298.15V224.328H1291.71V234.744C1291.71 235.896 1291.95 236.696 1292.43 237.144C1292.95 237.56 1293.81 237.768 1295.03 237.768H1298V243H1293.83ZM1312.8 243.576C1310.49 243.576 1308.41 243.048 1306.56 241.992C1304.73 240.936 1303.28 239.48 1302.19 237.624C1301.13 235.736 1300.6 233.56 1300.6 231.096C1300.6 228.632 1301.15 226.472 1302.24 224.616C1303.32 222.728 1304.78 221.256 1306.6 220.2C1308.46 219.144 1310.54 218.616 1312.84 218.616C1315.12 218.616 1317.16 219.144 1318.99 220.2C1320.84 221.256 1322.3 222.728 1323.36 224.616C1324.44 226.472 1324.99 228.632 1324.99 231.096C1324.99 233.56 1324.44 235.736 1323.36 237.624C1322.3 239.48 1320.84 240.936 1318.99 241.992C1317.13 243.048 1315.07 243.576 1312.8 243.576ZM1312.8 238.248C1314.4 238.248 1315.79 237.656 1316.97 236.472C1318.16 235.256 1318.75 233.464 1318.75 231.096C1318.75 228.728 1318.16 226.952 1316.97 225.768C1315.79 224.552 1314.41 223.944 1312.84 223.944C1311.21 223.944 1309.8 224.552 1308.62 225.768C1307.47 226.952 1306.89 228.728 1306.89 231.096C1306.89 233.464 1307.47 235.256 1308.62 236.472C1309.8 237.656 1311.2 238.248 1312.8 238.248ZM1329.04 243V219.192H1334.46L1334.94 223.224C1335.68 221.816 1336.74 220.696 1338.11 219.864C1339.52 219.032 1341.17 218.616 1343.06 218.616C1346 218.616 1348.29 219.544 1349.92 221.4C1351.55 223.256 1352.37 225.976 1352.37 229.56V243H1346.22V230.136C1346.22 228.088 1345.81 226.52 1344.98 225.432C1344.14 224.344 1342.85 223.8 1341.09 223.8C1339.36 223.8 1337.94 224.408 1336.82 225.624C1335.73 226.84 1335.18 228.536 1335.18 230.712V243H1329.04ZM1161.54 291V262.344H1151.75V257.4H1177.52V262.344H1167.68V291H1161.54ZM1187.75 291.576C1185.35 291.576 1183.22 291.064 1181.36 290.04C1179.51 289.016 1178.05 287.576 1177 285.72C1175.94 283.864 1175.41 281.72 1175.41 279.288C1175.41 276.824 1175.92 274.632 1176.95 272.712C1178 270.792 1179.44 269.304 1181.27 268.248C1183.12 267.16 1185.3 266.616 1187.8 266.616C1190.13 266.616 1192.2 267.128 1193.99 268.152C1195.78 269.176 1197.17 270.584 1198.16 272.376C1199.19 274.136 1199.7 276.104 1199.7 278.28C1199.7 278.632 1199.68 279 1199.65 279.384C1199.65 279.768 1199.64 280.168 1199.6 280.584H1181.51C1181.64 282.44 1182.28 283.896 1183.43 284.952C1184.61 286.008 1186.04 286.536 1187.7 286.536C1188.95 286.536 1189.99 286.264 1190.82 285.72C1191.68 285.144 1192.32 284.408 1192.74 283.512H1198.98C1198.53 285.016 1197.78 286.392 1196.72 287.64C1195.7 288.856 1194.42 289.816 1192.88 290.52C1191.38 291.224 1189.67 291.576 1187.75 291.576ZM1187.8 271.608C1186.29 271.608 1184.96 272.04 1183.81 272.904C1182.66 273.736 1181.92 275.016 1181.6 276.744H1193.46C1193.36 275.176 1192.79 273.928 1191.73 273C1190.68 272.072 1189.36 271.608 1187.8 271.608ZM1213.27 291.576C1211.16 291.576 1209.3 291.24 1207.7 290.568C1206.1 289.864 1204.82 288.904 1203.86 287.688C1202.9 286.472 1202.32 285.064 1202.13 283.464H1208.32C1208.52 284.392 1209.03 285.192 1209.86 285.864C1210.72 286.504 1211.83 286.824 1213.17 286.824C1214.52 286.824 1215.49 286.552 1216.1 286.008C1216.74 285.464 1217.06 284.84 1217.06 284.136C1217.06 283.112 1216.61 282.424 1215.72 282.072C1214.82 281.688 1213.57 281.32 1211.97 280.968C1210.95 280.744 1209.91 280.472 1208.85 280.152C1207.8 279.832 1206.82 279.432 1205.92 278.952C1205.06 278.44 1204.36 277.8 1203.81 277.032C1203.27 276.232 1203 275.256 1203 274.104C1203 271.992 1203.83 270.216 1205.49 268.776C1207.19 267.336 1209.56 266.616 1212.6 266.616C1215.41 266.616 1217.65 267.272 1219.32 268.584C1221.01 269.896 1222.02 271.704 1222.34 274.008H1216.53C1216.18 272.248 1214.85 271.368 1212.55 271.368C1211.4 271.368 1210.5 271.592 1209.86 272.04C1209.25 272.488 1208.95 273.048 1208.95 273.72C1208.95 274.424 1209.41 274.984 1210.34 275.4C1211.27 275.816 1212.5 276.2 1214.04 276.552C1215.7 276.936 1217.22 277.368 1218.6 277.848C1220 278.296 1221.12 278.984 1221.96 279.912C1222.79 280.808 1223.2 282.104 1223.2 283.8C1223.24 285.272 1222.85 286.6 1222.05 287.784C1221.25 288.968 1220.1 289.896 1218.6 290.568C1217.09 291.24 1215.32 291.576 1213.27 291.576ZM1237.06 291C1234.57 291 1232.57 290.392 1231.06 289.176C1229.56 287.96 1228.81 285.8 1228.81 282.696V272.328H1224.73V267.192H1228.81L1229.53 260.808H1234.95V267.192H1241.38V272.328H1234.95V282.744C1234.95 283.896 1235.19 284.696 1235.67 285.144C1236.18 285.56 1237.05 285.768 1238.26 285.768H1241.24V291H1237.06ZM1248.53 263.496C1247.41 263.496 1246.48 263.16 1245.75 262.488C1245.04 261.816 1244.69 260.968 1244.69 259.944C1244.69 258.92 1245.04 258.088 1245.75 257.448C1246.48 256.776 1247.41 256.44 1248.53 256.44C1249.65 256.44 1250.56 256.776 1251.27 257.448C1252 258.088 1252.37 258.92 1252.37 259.944C1252.37 260.968 1252 261.816 1251.27 262.488C1250.56 263.16 1249.65 263.496 1248.53 263.496ZM1245.46 291V267.192H1251.6V291H1245.46ZM1256.58 291V267.192H1262L1262.48 271.224C1263.22 269.816 1264.27 268.696 1265.65 267.864C1267.06 267.032 1268.7 266.616 1270.59 266.616C1273.54 266.616 1275.82 267.544 1277.46 269.4C1279.09 271.256 1279.9 273.976 1279.9 277.56V291H1273.76V278.136C1273.76 276.088 1273.34 274.52 1272.51 273.432C1271.68 272.344 1270.38 271.8 1268.62 271.8C1266.9 271.8 1265.47 272.408 1264.35 273.624C1263.26 274.84 1262.72 276.536 1262.72 278.712V291H1256.58ZM1294.42 283.896C1293.27 283.896 1292.2 283.768 1291.2 283.512L1289.43 285.288C1289.97 285.576 1290.71 285.816 1291.64 286.008C1292.56 286.2 1294.07 286.392 1296.15 286.584C1299.32 286.872 1301.62 287.624 1303.06 288.84C1304.5 290.056 1305.22 291.736 1305.22 293.88C1305.22 295.288 1304.84 296.616 1304.07 297.864C1303.3 299.144 1302.12 300.168 1300.52 300.936C1298.92 301.736 1296.87 302.136 1294.37 302.136C1290.98 302.136 1288.24 301.496 1286.16 300.216C1284.08 298.968 1283.04 297.08 1283.04 294.552C1283.04 292.408 1284.08 290.552 1286.16 288.984C1285.52 288.696 1284.96 288.392 1284.48 288.072C1284.04 287.752 1283.64 287.416 1283.28 287.064V285.96L1287.46 281.544C1285.6 279.912 1284.68 277.816 1284.68 275.256C1284.68 273.656 1285.06 272.2 1285.83 270.888C1286.63 269.576 1287.75 268.536 1289.19 267.768C1290.63 267 1292.37 266.616 1294.42 266.616C1295.76 266.616 1297.01 266.808 1298.16 267.192H1307.19V270.936L1303.11 271.224C1303.75 272.44 1304.07 273.784 1304.07 275.256C1304.07 276.856 1303.68 278.312 1302.92 279.624C1302.15 280.936 1301.03 281.976 1299.56 282.744C1298.12 283.512 1296.4 283.896 1294.42 283.896ZM1294.42 279.192C1295.67 279.192 1296.69 278.856 1297.49 278.184C1298.32 277.512 1298.74 276.552 1298.74 275.304C1298.74 274.056 1298.32 273.096 1297.49 272.424C1296.69 271.752 1295.67 271.416 1294.42 271.416C1293.11 271.416 1292.05 271.752 1291.25 272.424C1290.45 273.096 1290.05 274.056 1290.05 275.304C1290.05 276.552 1290.45 277.512 1291.25 278.184C1292.05 278.856 1293.11 279.192 1294.42 279.192ZM1288.66 293.928C1288.66 295.112 1289.2 295.992 1290.29 296.568C1291.41 297.176 1292.77 297.48 1294.37 297.48C1295.91 297.48 1297.16 297.16 1298.12 296.52C1299.08 295.912 1299.56 295.08 1299.56 294.024C1299.56 293.16 1299.24 292.44 1298.6 291.864C1297.99 291.288 1296.76 290.936 1294.9 290.808C1293.59 290.712 1292.37 290.568 1291.25 290.376C1290.32 290.888 1289.65 291.448 1289.24 292.056C1288.85 292.664 1288.66 293.288 1288.66 293.928Z" fill="black"/>
<path d="M896.114 328L908.402 294.4H915.314L927.602 328H921.074L918.386 320.224H905.282L902.546 328H896.114ZM906.962 315.424H916.706L911.81 301.456L906.962 315.424ZM930.346 328V304.192H935.818L936.394 308.656C937.258 307.12 938.426 305.904 939.898 305.008C941.402 304.08 943.162 303.616 945.178 303.616V310.096H943.45C942.106 310.096 940.906 310.304 939.85 310.72C938.794 311.136 937.962 311.856 937.354 312.88C936.778 313.904 936.49 315.328 936.49 317.152V328H930.346ZM958.546 328C956.05 328 954.05 327.392 952.546 326.176C951.042 324.96 950.29 322.8 950.29 319.696V309.328H946.21V304.192H950.29L951.01 297.808H956.434V304.192H962.866V309.328H956.434V319.744C956.434 320.896 956.674 321.696 957.154 322.144C957.666 322.56 958.53 322.768 959.746 322.768H962.722V328H958.546ZM970.013 300.496C968.893 300.496 967.965 300.16 967.229 299.488C966.525 298.816 966.173 297.968 966.173 296.944C966.173 295.92 966.525 295.088 967.229 294.448C967.965 293.776 968.893 293.44 970.013 293.44C971.133 293.44 972.045 293.776 972.749 294.448C973.485 295.088 973.853 295.92 973.853 296.944C973.853 297.968 973.485 298.816 972.749 299.488C972.045 300.16 971.133 300.496 970.013 300.496ZM966.941 328V304.192H973.085V328H966.941ZM979.162 328V309.328H975.898V304.192H979.162V301.408C979.162 298.528 979.882 296.48 981.322 295.264C982.794 294.048 984.778 293.44 987.273 293.44H989.914V298.672H988.234C987.178 298.672 986.426 298.88 985.978 299.296C985.53 299.712 985.306 300.416 985.306 301.408V304.192H1000.67V328H994.522V309.328H985.306V328H979.162ZM997.642 300.784C996.522 300.784 995.594 300.448 994.858 299.776C994.154 299.104 993.802 298.256 993.802 297.232C993.802 296.208 994.154 295.376 994.858 294.736C995.594 294.064 996.522 293.728 997.642 293.728C998.762 293.728 999.674 294.064 1000.38 294.736C1001.11 295.376 1001.48 296.208 1001.48 297.232C1001.48 298.256 1001.11 299.104 1000.38 299.776C999.674 300.448 998.762 300.784 997.642 300.784ZM1017.39 328.576C1014.96 328.576 1012.81 328.048 1010.96 326.992C1009.1 325.936 1007.63 324.464 1006.54 322.576C1005.49 320.688 1004.96 318.528 1004.96 316.096C1004.96 313.664 1005.49 311.504 1006.54 309.616C1007.63 307.728 1009.1 306.256 1010.96 305.2C1012.81 304.144 1014.96 303.616 1017.39 303.616C1020.43 303.616 1022.99 304.416 1025.07 306.016C1027.15 307.584 1028.48 309.76 1029.05 312.544H1022.57C1022.25 311.392 1021.61 310.496 1020.65 309.856C1019.73 309.184 1018.62 308.848 1017.34 308.848C1015.65 308.848 1014.21 309.488 1013.02 310.768C1011.84 312.048 1011.25 313.824 1011.25 316.096C1011.25 318.368 1011.84 320.144 1013.02 321.424C1014.21 322.704 1015.65 323.344 1017.34 323.344C1018.62 323.344 1019.73 323.024 1020.65 322.384C1021.61 321.744 1022.25 320.832 1022.57 319.648H1029.05C1028.48 322.336 1027.15 324.496 1025.07 326.128C1022.99 327.76 1020.43 328.576 1017.39 328.576ZM1036.38 300.496C1035.26 300.496 1034.33 300.16 1033.6 299.488C1032.89 298.816 1032.54 297.968 1032.54 296.944C1032.54 295.92 1032.89 295.088 1033.6 294.448C1034.33 293.776 1035.26 293.44 1036.38 293.44C1037.5 293.44 1038.41 293.776 1039.12 294.448C1039.85 295.088 1040.22 295.92 1040.22 296.944C1040.22 297.968 1039.85 298.816 1039.12 299.488C1038.41 300.16 1037.5 300.496 1036.38 300.496ZM1033.31 328V304.192H1039.45V328H1033.31ZM1052.63 328.576C1050.58 328.576 1048.9 328.256 1047.59 327.616C1046.28 326.944 1045.3 326.064 1044.66 324.976C1044.02 323.888 1043.7 322.688 1043.7 321.376C1043.7 319.168 1044.57 317.376 1046.3 316C1048.02 314.624 1050.62 313.936 1054.07 313.936H1060.12V313.36C1060.12 311.728 1059.66 310.528 1058.73 309.76C1057.8 308.992 1056.65 308.608 1055.27 308.608C1054.02 308.608 1052.94 308.912 1052.01 309.52C1051.08 310.096 1050.5 310.96 1050.28 312.112H1044.28C1044.44 310.384 1045.02 308.88 1046.01 307.6C1047.03 306.32 1048.34 305.344 1049.94 304.672C1051.54 303.968 1053.34 303.616 1055.32 303.616C1058.71 303.616 1061.38 304.464 1063.34 306.16C1065.29 307.856 1066.26 310.256 1066.26 313.36V328H1061.03L1060.46 324.16C1059.75 325.44 1058.76 326.496 1057.48 327.328C1056.23 328.16 1054.62 328.576 1052.63 328.576ZM1054.02 323.776C1055.78 323.776 1057.14 323.2 1058.1 322.048C1059.1 320.896 1059.72 319.472 1059.98 317.776H1054.74C1053.11 317.776 1051.94 318.08 1051.24 318.688C1050.54 319.264 1050.18 319.984 1050.18 320.848C1050.18 321.776 1050.54 322.496 1051.24 323.008C1051.94 323.52 1052.87 323.776 1054.02 323.776ZM1070.69 328V293.44H1076.83V328H1070.69ZM863.918 376V342.4H870.062V376H863.918ZM874.991 376V352.192H880.415L880.895 356.224C881.631 354.816 882.687 353.696 884.063 352.864C885.471 352.032 887.119 351.616 889.007 351.616C891.951 351.616 894.239 352.544 895.871 354.4C897.503 356.256 898.319 358.976 898.319 362.56V376H892.175V363.136C892.175 361.088 891.759 359.52 890.927 358.432C890.095 357.344 888.799 356.8 887.039 356.8C885.311 356.8 883.887 357.408 882.767 358.624C881.679 359.84 881.135 361.536 881.135 363.712V376H874.991ZM913.362 376C910.866 376 908.866 375.392 907.362 374.176C905.858 372.96 905.106 370.8 905.106 367.696V357.328H901.026V352.192H905.106L905.826 345.808H911.25V352.192H917.682V357.328H911.25V367.744C911.25 368.896 911.49 369.696 911.97 370.144C912.482 370.56 913.346 370.768 914.562 370.768H917.538V376H913.362ZM932.475 376.576C930.075 376.576 927.947 376.064 926.091 375.04C924.235 374.016 922.779 372.576 921.723 370.72C920.667 368.864 920.139 366.72 920.139 364.288C920.139 361.824 920.651 359.632 921.675 357.712C922.731 355.792 924.171 354.304 925.995 353.248C927.851 352.16 930.027 351.616 932.523 351.616C934.859 351.616 936.923 352.128 938.715 353.152C940.507 354.176 941.899 355.584 942.891 357.376C943.915 359.136 944.427 361.104 944.427 363.28C944.427 363.632 944.411 364 944.379 364.384C944.379 364.768 944.363 365.168 944.332 365.584H926.235C926.363 367.44 927.003 368.896 928.155 369.952C929.339 371.008 930.763 371.536 932.427 371.536C933.675 371.536 934.715 371.264 935.547 370.72C936.411 370.144 937.051 369.408 937.467 368.512H943.707C943.259 370.016 942.507 371.392 941.451 372.64C940.427 373.856 939.147 374.816 937.611 375.52C936.107 376.224 934.395 376.576 932.475 376.576ZM932.523 356.608C931.019 356.608 929.691 357.04 928.539 357.904C927.387 358.736 926.651 360.016 926.331 361.744H938.187C938.091 360.176 937.515 358.928 936.459 358C935.403 357.072 934.091 356.608 932.523 356.608ZM948.155 376V341.44H954.299V376H948.155ZM959.137 376V341.44H965.281V376H959.137ZM973.431 348.496C972.311 348.496 971.383 348.16 970.647 347.488C969.943 346.816 969.591 345.968 969.591 344.944C969.591 343.92 969.943 343.088 970.647 342.448C971.383 341.776 972.311 341.44 973.431 341.44C974.551 341.44 975.463 341.776 976.167 342.448C976.903 343.088 977.271 343.92 977.271 344.944C977.271 345.968 976.903 346.816 976.167 347.488C975.463 348.16 974.551 348.496 973.431 348.496ZM970.359 376V352.192H976.503V376H970.359ZM991.556 368.896C990.404 368.896 989.332 368.768 988.34 368.512L986.564 370.288C987.108 370.576 987.844 370.816 988.772 371.008C989.7 371.2 991.204 371.392 993.284 371.584C996.452 371.872 998.756 372.624 1000.2 373.84C1001.64 375.056 1002.36 376.736 1002.36 378.88C1002.36 380.288 1001.97 381.616 1001.2 382.864C1000.44 384.144 999.252 385.168 997.652 385.936C996.052 386.736 994.004 387.136 991.508 387.136C988.116 387.136 985.38 386.496 983.3 385.216C981.22 383.968 980.18 382.08 980.18 379.552C980.18 377.408 981.22 375.552 983.3 373.984C982.66 373.696 982.1 373.392 981.62 373.072C981.172 372.752 980.772 372.416 980.42 372.064V370.96L984.596 366.544C982.74 364.912 981.812 362.816 981.812 360.256C981.812 358.656 982.196 357.2 982.964 355.888C983.764 354.576 984.884 353.536 986.324 352.768C987.764 352 989.508 351.616 991.556 351.616C992.9 351.616 994.148 351.808 995.3 352.192H1004.32V355.936L1000.24 356.224C1000.88 357.44 1001.2 358.784 1001.2 360.256C1001.2 361.856 1000.82 363.312 1000.05 364.624C999.284 365.936 998.164 366.976 996.692 367.744C995.252 368.512 993.54 368.896 991.556 368.896ZM991.556 364.192C992.804 364.192 993.828 363.856 994.628 363.184C995.46 362.512 995.876 361.552 995.876 360.304C995.876 359.056 995.46 358.096 994.628 357.424C993.828 356.752 992.804 356.416 991.556 356.416C990.244 356.416 989.188 356.752 988.388 357.424C987.588 358.096 987.188 359.056 987.188 360.304C987.188 361.552 987.588 362.512 988.388 363.184C989.188 363.856 990.244 364.192 991.556 364.192ZM985.796 378.928C985.796 380.112 986.34 380.992 987.428 381.568C988.548 382.176 989.908 382.48 991.508 382.48C993.044 382.48 994.292 382.16 995.252 381.52C996.212 380.912 996.692 380.08 996.692 379.024C996.692 378.16 996.372 377.44 995.732 376.864C995.124 376.288 993.892 375.936 992.036 375.808C990.724 375.712 989.508 375.568 988.388 375.376C987.46 375.888 986.788 376.448 986.372 377.056C985.988 377.664 985.796 378.288 985.796 378.928ZM1017.99 376.576C1015.59 376.576 1013.47 376.064 1011.61 375.04C1009.75 374.016 1008.3 372.576 1007.24 370.72C1006.19 368.864 1005.66 366.72 1005.66 364.288C1005.66 361.824 1006.17 359.632 1007.19 357.712C1008.25 355.792 1009.69 354.304 1011.51 353.248C1013.37 352.16 1015.55 351.616 1018.04 351.616C1020.38 351.616 1022.44 352.128 1024.23 353.152C1026.03 354.176 1027.42 355.584 1028.41 357.376C1029.43 359.136 1029.95 361.104 1029.95 363.28C1029.95 363.632 1029.93 364 1029.9 364.384C1029.9 364.768 1029.88 365.168 1029.85 365.584H1011.75C1011.88 367.44 1012.52 368.896 1013.67 369.952C1014.86 371.008 1016.28 371.536 1017.95 371.536C1019.19 371.536 1020.23 371.264 1021.07 370.72C1021.93 370.144 1022.57 369.408 1022.99 368.512H1029.23C1028.78 370.016 1028.03 371.392 1026.97 372.64C1025.95 373.856 1024.67 374.816 1023.13 375.52C1021.63 376.224 1019.91 376.576 1017.99 376.576ZM1018.04 356.608C1016.54 356.608 1015.21 357.04 1014.06 357.904C1012.91 358.736 1012.17 360.016 1011.85 361.744H1023.71C1023.61 360.176 1023.03 358.928 1021.98 358C1020.92 357.072 1019.61 356.608 1018.04 356.608ZM1033.67 376V352.192H1039.1L1039.58 356.224C1040.31 354.816 1041.37 353.696 1042.75 352.864C1044.15 352.032 1045.8 351.616 1047.69 351.616C1050.63 351.616 1052.92 352.544 1054.55 354.4C1056.19 356.256 1057 358.976 1057 362.56V376H1050.86V363.136C1050.86 361.088 1050.44 359.52 1049.61 358.432C1048.78 357.344 1047.48 356.8 1045.72 356.8C1043.99 356.8 1042.57 357.408 1041.45 358.624C1040.36 359.84 1039.82 361.536 1039.82 363.712V376H1033.67ZM1073.1 376.576C1070.67 376.576 1068.52 376.048 1066.67 374.992C1064.81 373.936 1063.34 372.464 1062.25 370.576C1061.2 368.688 1060.67 366.528 1060.67 364.096C1060.67 361.664 1061.2 359.504 1062.25 357.616C1063.34 355.728 1064.81 354.256 1066.67 353.2C1068.52 352.144 1070.67 351.616 1073.1 351.616C1076.14 351.616 1078.7 352.416 1080.78 354.016C1082.86 355.584 1084.19 357.76 1084.76 360.544H1078.28C1077.96 359.392 1077.32 358.496 1076.36 357.856C1075.44 357.184 1074.33 356.848 1073.05 356.848C1071.36 356.848 1069.92 357.488 1068.73 358.768C1067.55 360.048 1066.96 361.824 1066.96 364.096C1066.96 366.368 1067.55 368.144 1068.73 369.424C1069.92 370.704 1071.36 371.344 1073.05 371.344C1074.33 371.344 1075.44 371.024 1076.36 370.384C1077.32 369.744 1077.96 368.832 1078.28 367.648H1084.76C1084.19 370.336 1082.86 372.496 1080.78 374.128C1078.7 375.76 1076.14 376.576 1073.1 376.576ZM1100.35 376.576C1097.95 376.576 1095.82 376.064 1093.96 375.04C1092.11 374.016 1090.65 372.576 1089.59 370.72C1088.54 368.864 1088.01 366.72 1088.01 364.288C1088.01 361.824 1088.52 359.632 1089.55 357.712C1090.6 355.792 1092.04 354.304 1093.87 353.248C1095.72 352.16 1097.9 351.616 1100.39 351.616C1102.73 351.616 1104.79 352.128 1106.59 353.152C1108.38 354.176 1109.77 355.584 1110.76 357.376C1111.79 359.136 1112.3 361.104 1112.3 363.28C1112.3 363.632 1112.28 364 1112.25 364.384C1112.25 364.768 1112.23 365.168 1112.2 365.584H1094.11C1094.23 367.44 1094.87 368.896 1096.03 369.952C1097.21 371.008 1098.63 371.536 1100.3 371.536C1101.55 371.536 1102.59 371.264 1103.42 370.72C1104.28 370.144 1104.92 369.408 1105.34 368.512H1111.58C1111.13 370.016 1110.38 371.392 1109.32 372.64C1108.3 373.856 1107.02 374.816 1105.48 375.52C1103.98 376.224 1102.27 376.576 1100.35 376.576ZM1100.39 356.608C1098.89 356.608 1097.56 357.04 1096.41 357.904C1095.26 358.736 1094.52 360.016 1094.2 361.744H1106.06C1105.96 360.176 1105.39 358.928 1104.33 358C1103.27 357.072 1101.96 356.608 1100.39 356.608Z" fill="black"/>
<path d="M621.623 235L633.911 201.4H640.823L653.111 235H646.583L643.895 227.224H630.791L628.055 235H621.623ZM632.471 222.424H642.215L637.319 208.456L632.471 222.424ZM655.856 245.56V211.192H661.328L662 214.6C662.768 213.544 663.776 212.616 665.024 211.816C666.304 211.016 667.952 210.616 669.968 210.616C672.208 210.616 674.208 211.16 675.968 212.248C677.728 213.336 679.12 214.824 680.144 216.712C681.168 218.6 681.68 220.744 681.68 223.144C681.68 225.544 681.168 227.688 680.144 229.576C679.12 231.432 677.728 232.904 675.968 233.992C674.208 235.048 672.208 235.576 669.968 235.576C668.176 235.576 666.608 235.24 665.264 234.568C663.92 233.896 662.832 232.952 662 231.736V245.56H655.856ZM668.672 230.2C670.624 230.2 672.24 229.544 673.52 228.232C674.8 226.92 675.44 225.224 675.44 223.144C675.44 221.064 674.8 219.352 673.52 218.008C672.24 216.664 670.624 215.992 668.672 215.992C666.688 215.992 665.056 216.664 663.776 218.008C662.528 219.32 661.904 221.016 661.904 223.096C661.904 225.176 662.528 226.888 663.776 228.232C665.056 229.544 666.688 230.2 668.672 230.2ZM685.728 245.56V211.192H691.2L691.872 214.6C692.64 213.544 693.648 212.616 694.896 211.816C696.176 211.016 697.824 210.616 699.84 210.616C702.08 210.616 704.08 211.16 705.84 212.248C707.6 213.336 708.992 214.824 710.016 216.712C711.04 218.6 711.552 220.744 711.552 223.144C711.552 225.544 711.04 227.688 710.016 229.576C708.992 231.432 707.6 232.904 705.84 233.992C704.08 235.048 702.08 235.576 699.84 235.576C698.048 235.576 696.48 235.24 695.136 234.568C693.792 233.896 692.704 232.952 691.872 231.736V245.56H685.728ZM698.544 230.2C700.496 230.2 702.112 229.544 703.392 228.232C704.672 226.92 705.312 225.224 705.312 223.144C705.312 221.064 704.672 219.352 703.392 218.008C702.112 216.664 700.496 215.992 698.544 215.992C696.56 215.992 694.928 216.664 693.648 218.008C692.4 219.32 691.776 221.016 691.776 223.096C691.776 225.176 692.4 226.888 693.648 228.232C694.928 229.544 696.56 230.2 698.544 230.2ZM521.058 283V249.4H532.53C536.466 249.4 539.698 250.104 542.226 251.512C544.786 252.888 546.674 254.84 547.89 257.368C549.138 259.864 549.762 262.808 549.762 266.2C549.762 269.592 549.138 272.552 547.89 275.08C546.674 277.576 544.786 279.528 542.226 280.936C539.698 282.312 536.466 283 532.53 283H521.058ZM527.202 277.72H532.242C535.058 277.72 537.282 277.272 538.914 276.376C540.546 275.448 541.714 274.136 542.418 272.44C543.122 270.712 543.474 268.632 543.474 266.2C543.474 263.8 543.122 261.736 542.418 260.008C541.714 258.28 540.546 256.952 538.914 256.024C537.282 255.096 535.058 254.632 532.242 254.632H527.202V277.72ZM565.167 283.576C562.767 283.576 560.639 283.064 558.783 282.04C556.927 281.016 555.471 279.576 554.415 277.72C553.359 275.864 552.831 273.72 552.831 271.288C552.831 268.824 553.343 266.632 554.367 264.712C555.423 262.792 556.863 261.304 558.687 260.248C560.543 259.16 562.719 258.616 565.215 258.616C567.551 258.616 569.615 259.128 571.407 260.152C573.199 261.176 574.591 262.584 575.583 264.376C576.607 266.136 577.119 268.104 577.119 270.28C577.119 270.632 577.103 271 577.071 271.384C577.071 271.768 577.055 272.168 577.023 272.584H558.927C559.055 274.44 559.695 275.896 560.847 276.952C562.031 278.008 563.455 278.536 565.119 278.536C566.367 278.536 567.407 278.264 568.239 277.72C569.103 277.144 569.743 276.408 570.159 275.512H576.399C575.951 277.016 575.199 278.392 574.143 279.64C573.119 280.856 571.839 281.816 570.303 282.52C568.799 283.224 567.087 283.576 565.167 283.576ZM565.215 263.608C563.711 263.608 562.383 264.04 561.231 264.904C560.079 265.736 559.343 267.016 559.023 268.744H570.879C570.783 267.176 570.207 265.928 569.151 265C568.095 264.072 566.783 263.608 565.215 263.608ZM586.341 283L577.605 259.192H584.037L590.085 277.192L596.133 259.192H602.565L593.781 283H586.341ZM615.396 283.576C612.996 283.576 610.868 283.064 609.012 282.04C607.156 281.016 605.7 279.576 604.644 277.72C603.588 275.864 603.06 273.72 603.06 271.288C603.06 268.824 603.572 266.632 604.596 264.712C605.652 262.792 607.092 261.304 608.916 260.248C610.772 259.16 612.948 258.616 615.444 258.616C617.78 258.616 619.844 259.128 621.636 260.152C623.428 261.176 624.82 262.584 625.812 264.376C626.836 266.136 627.348 268.104 627.348 270.28C627.348 270.632 627.332 271 627.3 271.384C627.3 271.768 627.284 272.168 627.252 272.584H609.156C609.284 274.44 609.924 275.896 611.076 276.952C612.26 278.008 613.684 278.536 615.348 278.536C616.596 278.536 617.636 278.264 618.468 277.72C619.332 277.144 619.972 276.408 620.388 275.512H626.628C626.18 277.016 625.428 278.392 624.372 279.64C623.348 280.856 622.068 281.816 620.532 282.52C619.028 283.224 617.316 283.576 615.396 283.576ZM615.444 263.608C613.94 263.608 612.612 264.04 611.46 264.904C610.308 265.736 609.572 267.016 609.252 268.744H621.108C621.012 267.176 620.436 265.928 619.38 265C618.324 264.072 617.012 263.608 615.444 263.608ZM631.076 283V248.44H637.22V283H631.076ZM653.482 283.576C651.178 283.576 649.098 283.048 647.242 281.992C645.418 280.936 643.962 279.48 642.874 277.624C641.818 275.736 641.29 273.56 641.29 271.096C641.29 268.632 641.834 266.472 642.922 264.616C644.01 262.728 645.466 261.256 647.29 260.2C649.146 259.144 651.226 258.616 653.53 258.616C655.802 258.616 657.85 259.144 659.674 260.2C661.53 261.256 662.986 262.728 664.042 264.616C665.13 266.472 665.674 268.632 665.674 271.096C665.674 273.56 665.13 275.736 664.042 277.624C662.986 279.48 661.53 280.936 659.674 281.992C657.818 283.048 655.754 283.576 653.482 283.576ZM653.482 278.248C655.082 278.248 656.474 277.656 657.658 276.472C658.842 275.256 659.434 273.464 659.434 271.096C659.434 268.728 658.842 266.952 657.658 265.768C656.474 264.552 655.098 263.944 653.53 263.944C651.898 263.944 650.49 264.552 649.306 265.768C648.154 266.952 647.578 268.728 647.578 271.096C647.578 273.464 648.154 275.256 649.306 276.472C650.49 277.656 651.882 278.248 653.482 278.248ZM669.727 293.56V259.192H675.199L675.871 262.6C676.639 261.544 677.647 260.616 678.895 259.816C680.175 259.016 681.823 258.616 683.839 258.616C686.079 258.616 688.079 259.16 689.839 260.248C691.599 261.336 692.991 262.824 694.015 264.712C695.039 266.6 695.551 268.744 695.551 271.144C695.551 273.544 695.039 275.688 694.015 277.576C692.991 279.432 691.599 280.904 689.839 281.992C688.079 283.048 686.079 283.576 683.839 283.576C682.047 283.576 680.479 283.24 679.135 282.568C677.791 281.896 676.703 280.952 675.871 279.736V293.56H669.727ZM682.543 278.2C684.495 278.2 686.111 277.544 687.391 276.232C688.671 274.92 689.311 273.224 689.311 271.144C689.311 269.064 688.671 267.352 687.391 266.008C686.111 264.664 684.495 263.992 682.543 263.992C680.559 263.992 678.927 264.664 677.647 266.008C676.399 267.32 675.775 269.016 675.775 271.096C675.775 273.176 676.399 274.888 677.647 276.232C678.927 277.544 680.559 278.2 682.543 278.2ZM699.599 283V259.192H705.023L705.551 262.408C706.319 261.256 707.327 260.344 708.575 259.672C709.855 258.968 711.327 258.616 712.991 258.616C716.671 258.616 719.279 260.04 720.815 262.888C721.679 261.576 722.831 260.536 724.271 259.768C725.743 259 727.343 258.616 729.071 258.616C732.175 258.616 734.559 259.544 736.223 261.4C737.887 263.256 738.719 265.976 738.719 269.56V283H732.575V270.136C732.575 268.088 732.175 266.52 731.375 265.432C730.607 264.344 729.407 263.8 727.775 263.8C726.111 263.8 724.767 264.408 723.743 265.624C722.751 266.84 722.255 268.536 722.255 270.712V283H716.111V270.136C716.111 268.088 715.711 266.52 714.911 265.432C714.111 264.344 712.879 263.8 711.215 263.8C709.583 263.8 708.255 264.408 707.231 265.624C706.239 266.84 705.743 268.536 705.743 270.712V283H699.599ZM754.68 283.576C752.28 283.576 750.152 283.064 748.296 282.04C746.44 281.016 744.984 279.576 743.928 277.72C742.872 275.864 742.344 273.72 742.344 271.288C742.344 268.824 742.856 266.632 743.88 264.712C744.936 262.792 746.376 261.304 748.2 260.248C750.056 259.16 752.232 258.616 754.728 258.616C757.064 258.616 759.128 259.128 760.92 260.152C762.712 261.176 764.104 262.584 765.096 264.376C766.12 266.136 766.632 268.104 766.632 270.28C766.632 270.632 766.616 271 766.584 271.384C766.584 271.768 766.568 272.168 766.536 272.584H748.44C748.568 274.44 749.208 275.896 750.36 276.952C751.544 278.008 752.968 278.536 754.632 278.536C755.88 278.536 756.92 278.264 757.752 277.72C758.616 277.144 759.256 276.408 759.672 275.512H765.912C765.464 277.016 764.712 278.392 763.656 279.64C762.632 280.856 761.352 281.816 759.816 282.52C758.312 283.224 756.6 283.576 754.68 283.576ZM754.728 263.608C753.224 263.608 751.896 264.04 750.744 264.904C749.592 265.736 748.856 267.016 748.536 268.744H760.392C760.296 267.176 759.72 265.928 758.664 265C757.608 264.072 756.296 263.608 754.728 263.608ZM770.36 283V259.192H775.784L776.264 263.224C777 261.816 778.056 260.696 779.432 259.864C780.84 259.032 782.488 258.616 784.376 258.616C787.32 258.616 789.608 259.544 791.24 261.4C792.872 263.256 793.688 265.976 793.688 269.56V283H787.544V270.136C787.544 268.088 787.128 266.52 786.296 265.432C785.464 264.344 784.168 263.8 782.408 263.8C780.68 263.8 779.256 264.408 778.136 265.624C777.048 266.84 776.504 268.536 776.504 270.712V283H770.36ZM808.731 283C806.235 283 804.235 282.392 802.731 281.176C801.227 279.96 800.475 277.8 800.475 274.696V264.328H796.395V259.192H800.475L801.195 252.808H806.619V259.192H813.051V264.328H806.619V274.744C806.619 275.896 806.859 276.696 807.339 277.144C807.851 277.56 808.715 277.768 809.931 277.768H812.907V283H808.731Z" fill="black"/>
<path d="M303.771 311L294.891 277.4H301.467L307.515 304.136L314.619 277.4H321.387L328.299 304.136L334.347 277.4H340.971L331.851 311H324.555L317.883 286.088L311.019 311H303.771ZM352.877 311.576C350.477 311.576 348.349 311.064 346.493 310.04C344.637 309.016 343.181 307.576 342.125 305.72C341.069 303.864 340.541 301.72 340.541 299.288C340.541 296.824 341.053 294.632 342.077 292.712C343.133 290.792 344.573 289.304 346.397 288.248C348.253 287.16 350.429 286.616 352.925 286.616C355.261 286.616 357.325 287.128 359.117 288.152C360.909 289.176 362.301 290.584 363.293 292.376C364.317 294.136 364.829 296.104 364.829 298.28C364.829 298.632 364.813 299 364.781 299.384C364.781 299.768 364.765 300.168 364.733 300.584H346.637C346.765 302.44 347.405 303.896 348.557 304.952C349.741 306.008 351.165 306.536 352.829 306.536C354.077 306.536 355.117 306.264 355.949 305.72C356.813 305.144 357.453 304.408 357.869 303.512H364.109C363.661 305.016 362.909 306.392 361.853 307.64C360.829 308.856 359.549 309.816 358.013 310.52C356.509 311.224 354.797 311.576 352.877 311.576ZM352.925 291.608C351.421 291.608 350.093 292.04 348.941 292.904C347.789 293.736 347.053 295.016 346.733 296.744H358.589C358.493 295.176 357.917 293.928 356.861 293C355.805 292.072 354.493 291.608 352.925 291.608ZM382.668 311.576C380.876 311.576 379.308 311.24 377.964 310.568C376.62 309.896 375.532 308.952 374.7 307.736L374.028 311H368.556V276.44H374.7V290.6C375.468 289.544 376.476 288.616 377.724 287.816C379.004 287.016 380.652 286.616 382.668 286.616C384.908 286.616 386.908 287.16 388.668 288.248C390.428 289.336 391.82 290.824 392.844 292.712C393.868 294.6 394.38 296.744 394.38 299.144C394.38 301.544 393.868 303.688 392.844 305.576C391.82 307.432 390.428 308.904 388.668 309.992C386.908 311.048 384.908 311.576 382.668 311.576ZM381.372 306.2C383.324 306.2 384.94 305.544 386.22 304.232C387.5 302.92 388.14 301.224 388.14 299.144C388.14 297.064 387.5 295.352 386.22 294.008C384.94 292.664 383.324 291.992 381.372 291.992C379.388 291.992 377.756 292.664 376.476 294.008C375.228 295.32 374.604 297.016 374.604 299.096C374.604 301.176 375.228 302.888 376.476 304.232C377.756 305.544 379.388 306.2 381.372 306.2ZM199.058 359V325.4H210.53C214.466 325.4 217.698 326.104 220.226 327.512C222.786 328.888 224.674 330.84 225.89 333.368C227.138 335.864 227.762 338.808 227.762 342.2C227.762 345.592 227.138 348.552 225.89 351.08C224.674 353.576 222.786 355.528 220.226 356.936C217.698 358.312 214.466 359 210.53 359H199.058ZM205.202 353.72H210.242C213.058 353.72 215.282 353.272 216.914 352.376C218.546 351.448 219.714 350.136 220.418 348.44C221.122 346.712 221.474 344.632 221.474 342.2C221.474 339.8 221.122 337.736 220.418 336.008C219.714 334.28 218.546 332.952 216.914 332.024C215.282 331.096 213.058 330.632 210.242 330.632H205.202V353.72ZM243.167 359.576C240.767 359.576 238.639 359.064 236.783 358.04C234.927 357.016 233.471 355.576 232.415 353.72C231.359 351.864 230.831 349.72 230.831 347.288C230.831 344.824 231.343 342.632 232.367 340.712C233.423 338.792 234.863 337.304 236.687 336.248C238.543 335.16 240.719 334.616 243.215 334.616C245.551 334.616 247.615 335.128 249.407 336.152C251.199 337.176 252.591 338.584 253.583 340.376C254.607 342.136 255.119 344.104 255.119 346.28C255.119 346.632 255.103 347 255.071 347.384C255.071 347.768 255.055 348.168 255.023 348.584H236.927C237.055 350.44 237.695 351.896 238.847 352.952C240.031 354.008 241.455 354.536 243.119 354.536C244.367 354.536 245.407 354.264 246.239 353.72C247.103 353.144 247.743 352.408 248.159 351.512H254.399C253.951 353.016 253.199 354.392 252.143 355.64C251.119 356.856 249.839 357.816 248.303 358.52C246.799 359.224 245.087 359.576 243.167 359.576ZM243.215 339.608C241.711 339.608 240.383 340.04 239.231 340.904C238.079 341.736 237.343 343.016 237.023 344.744H248.879C248.783 343.176 248.207 341.928 247.151 341C246.095 340.072 244.783 339.608 243.215 339.608ZM264.341 359L255.605 335.192H262.037L268.085 353.192L274.133 335.192H280.565L271.781 359H264.341ZM293.396 359.576C290.996 359.576 288.868 359.064 287.012 358.04C285.156 357.016 283.7 355.576 282.644 353.72C281.588 351.864 281.06 349.72 281.06 347.288C281.06 344.824 281.572 342.632 282.596 340.712C283.652 338.792 285.092 337.304 286.916 336.248C288.772 335.16 290.948 334.616 293.444 334.616C295.78 334.616 297.844 335.128 299.636 336.152C301.428 337.176 302.82 338.584 303.812 340.376C304.836 342.136 305.348 344.104 305.348 346.28C305.348 346.632 305.332 347 305.3 347.384C305.3 347.768 305.284 348.168 305.252 348.584H287.156C287.284 350.44 287.924 351.896 289.076 352.952C290.26 354.008 291.684 354.536 293.348 354.536C294.596 354.536 295.636 354.264 296.468 353.72C297.332 353.144 297.972 352.408 298.388 351.512H304.628C304.18 353.016 303.428 354.392 302.372 355.64C301.348 356.856 300.068 357.816 298.532 358.52C297.028 359.224 295.316 359.576 293.396 359.576ZM293.444 339.608C291.94 339.608 290.612 340.04 289.46 340.904C288.308 341.736 287.572 343.016 287.252 344.744H299.108C299.012 343.176 298.436 341.928 297.38 341C296.324 340.072 295.012 339.608 293.444 339.608ZM309.076 359V324.44H315.22V359H309.076ZM331.482 359.576C329.178 359.576 327.098 359.048 325.242 357.992C323.418 356.936 321.962 355.48 320.874 353.624C319.818 351.736 319.29 349.56 319.29 347.096C319.29 344.632 319.834 342.472 320.922 340.616C322.01 338.728 323.466 337.256 325.29 336.2C327.146 335.144 329.226 334.616 331.53 334.616C333.802 334.616 335.85 335.144 337.674 336.2C339.53 337.256 340.986 338.728 342.042 340.616C343.13 342.472 343.674 344.632 343.674 347.096C343.674 349.56 343.13 351.736 342.042 353.624C340.986 355.48 339.53 356.936 337.674 357.992C335.818 359.048 333.754 359.576 331.482 359.576ZM331.482 354.248C333.082 354.248 334.474 353.656 335.658 352.472C336.842 351.256 337.434 349.464 337.434 347.096C337.434 344.728 336.842 342.952 335.658 341.768C334.474 340.552 333.098 339.944 331.53 339.944C329.898 339.944 328.49 340.552 327.306 341.768C326.154 342.952 325.578 344.728 325.578 347.096C325.578 349.464 326.154 351.256 327.306 352.472C328.49 353.656 329.882 354.248 331.482 354.248ZM347.727 369.56V335.192H353.199L353.871 338.6C354.639 337.544 355.647 336.616 356.895 335.816C358.175 335.016 359.823 334.616 361.839 334.616C364.079 334.616 366.079 335.16 367.839 336.248C369.599 337.336 370.991 338.824 372.015 340.712C373.039 342.6 373.551 344.744 373.551 347.144C373.551 349.544 373.039 351.688 372.015 353.576C370.991 355.432 369.599 356.904 367.839 357.992C366.079 359.048 364.079 359.576 361.839 359.576C360.047 359.576 358.479 359.24 357.135 358.568C355.791 357.896 354.703 356.952 353.871 355.736V369.56H347.727ZM360.543 354.2C362.495 354.2 364.111 353.544 365.391 352.232C366.671 350.92 367.311 349.224 367.311 347.144C367.311 345.064 366.671 343.352 365.391 342.008C364.111 340.664 362.495 339.992 360.543 339.992C358.559 339.992 356.927 340.664 355.647 342.008C354.399 343.32 353.775 345.016 353.775 347.096C353.775 349.176 354.399 350.888 355.647 352.232C356.927 353.544 358.559 354.2 360.543 354.2ZM377.599 359V335.192H383.023L383.551 338.408C384.319 337.256 385.327 336.344 386.575 335.672C387.855 334.968 389.327 334.616 390.991 334.616C394.671 334.616 397.279 336.04 398.815 338.888C399.679 337.576 400.831 336.536 402.271 335.768C403.743 335 405.343 334.616 407.071 334.616C410.175 334.616 412.559 335.544 414.223 337.4C415.887 339.256 416.719 341.976 416.719 345.56V359H410.575V346.136C410.575 344.088 410.175 342.52 409.375 341.432C408.607 340.344 407.407 339.8 405.775 339.8C404.111 339.8 402.767 340.408 401.743 341.624C400.751 342.84 400.255 344.536 400.255 346.712V359H394.111V346.136C394.111 344.088 393.711 342.52 392.911 341.432C392.111 340.344 390.879 339.8 389.215 339.8C387.583 339.8 386.255 340.408 385.231 341.624C384.239 342.84 383.743 344.536 383.743 346.712V359H377.599ZM432.68 359.576C430.28 359.576 428.152 359.064 426.296 358.04C424.44 357.016 422.984 355.576 421.928 353.72C420.872 351.864 420.344 349.72 420.344 347.288C420.344 344.824 420.856 342.632 421.88 340.712C422.936 338.792 424.376 337.304 426.2 336.248C428.056 335.16 430.232 334.616 432.728 334.616C435.064 334.616 437.128 335.128 438.92 336.152C440.712 337.176 442.104 338.584 443.096 340.376C444.12 342.136 444.632 344.104 444.632 346.28C444.632 346.632 444.616 347 444.584 347.384C444.584 347.768 444.568 348.168 444.536 348.584H426.44C426.568 350.44 427.208 351.896 428.36 352.952C429.544 354.008 430.968 354.536 432.632 354.536C433.88 354.536 434.92 354.264 435.752 353.72C436.616 353.144 437.256 352.408 437.672 351.512H443.912C443.464 353.016 442.712 354.392 441.656 355.64C440.632 356.856 439.352 357.816 437.816 358.52C436.312 359.224 434.6 359.576 432.68 359.576ZM432.728 339.608C431.224 339.608 429.896 340.04 428.744 340.904C427.592 341.736 426.856 343.016 426.536 344.744H438.392C438.296 343.176 437.72 341.928 436.664 341C435.608 340.072 434.296 339.608 432.728 339.608ZM448.36 359V335.192H453.784L454.264 339.224C455 337.816 456.056 336.696 457.432 335.864C458.84 335.032 460.488 334.616 462.376 334.616C465.32 334.616 467.608 335.544 469.24 337.4C470.872 339.256 471.688 341.976 471.688 345.56V359H465.544V346.136C465.544 344.088 465.128 342.52 464.296 341.432C463.464 340.344 462.168 339.8 460.408 339.8C458.68 339.8 457.256 340.408 456.136 341.624C455.048 342.84 454.504 344.536 454.504 346.712V359H448.36ZM486.731 359C484.235 359 482.235 358.392 480.731 357.176C479.227 355.96 478.475 353.8 478.475 350.696V340.328H474.395V335.192H478.475L479.195 328.808H484.619V335.192H491.051V340.328H484.619V350.744C484.619 351.896 484.859 352.696 485.339 353.144C485.851 353.56 486.715 353.768 487.931 353.768H490.907V359H486.731Z" fill="black"/>
<path d="M25.6843 235V201.4H37.1563C41.0923 201.4 44.3243 202.104 46.8523 203.512C49.4123 204.888 51.3003 206.84 52.5163 209.368C53.7643 211.864 54.3883 214.808 54.3883 218.2C54.3883 221.592 53.7643 224.552 52.5163 227.08C51.3003 229.576 49.4123 231.528 46.8523 232.936C44.3243 234.312 41.0923 235 37.1563 235H25.6843ZM31.8283 229.72H36.8683C39.6843 229.72 41.9083 229.272 43.5403 228.376C45.1723 227.448 46.3403 226.136 47.0443 224.44C47.7483 222.712 48.1003 220.632 48.1003 218.2C48.1003 215.8 47.7483 213.736 47.0443 212.008C46.3403 210.28 45.1723 208.952 43.5403 208.024C41.9083 207.096 39.6843 206.632 36.8683 206.632H31.8283V229.72ZM69.7933 235.576C67.3933 235.576 65.2653 235.064 63.4093 234.04C61.5533 233.016 60.0973 231.576 59.0413 229.72C57.9853 227.864 57.4573 225.72 57.4573 223.288C57.4573 220.824 57.9693 218.632 58.9933 216.712C60.0493 214.792 61.4893 213.304 63.3133 212.248C65.1693 211.16 67.3453 210.616 69.8413 210.616C72.1773 210.616 74.2413 211.128 76.0333 212.152C77.8253 213.176 79.2173 214.584 80.2093 216.376C81.2333 218.136 81.7453 220.104 81.7453 222.28C81.7453 222.632 81.7293 223 81.6973 223.384C81.6973 223.768 81.6813 224.168 81.6493 224.584H63.5533C63.6813 226.44 64.3213 227.896 65.4733 228.952C66.6573 230.008 68.0813 230.536 69.7453 230.536C70.9933 230.536 72.0333 230.264 72.8653 229.72C73.7293 229.144 74.3693 228.408 74.7853 227.512H81.0253C80.5773 229.016 79.8253 230.392 78.7693 231.64C77.7453 232.856 76.4653 233.816 74.9293 234.52C73.4253 235.224 71.7133 235.576 69.7933 235.576ZM69.8413 215.608C68.3373 215.608 67.0093 216.04 65.8573 216.904C64.7053 217.736 63.9693 219.016 63.6493 220.744H75.5053C75.4093 219.176 74.8333 217.928 73.7773 217C72.7213 216.072 71.4093 215.608 69.8413 215.608ZM95.3128 235.576C93.2008 235.576 91.3448 235.24 89.7448 234.568C88.1448 233.864 86.8648 232.904 85.9048 231.688C84.9448 230.472 84.3688 229.064 84.1768 227.464H90.3688C90.5608 228.392 91.0728 229.192 91.9048 229.864C92.7688 230.504 93.8728 230.824 95.2168 230.824C96.5608 230.824 97.5368 230.552 98.1448 230.008C98.7848 229.464 99.1048 228.84 99.1048 228.136C99.1048 227.112 98.6568 226.424 97.7608 226.072C96.8648 225.688 95.6168 225.32 94.0168 224.968C92.9928 224.744 91.9528 224.472 90.8968 224.152C89.8408 223.832 88.8648 223.432 87.9688 222.952C87.1048 222.44 86.4008 221.8 85.8568 221.032C85.3128 220.232 85.0408 219.256 85.0408 218.104C85.0408 215.992 85.8728 214.216 87.5368 212.776C89.2328 211.336 91.6008 210.616 94.6408 210.616C97.4568 210.616 99.6968 211.272 101.361 212.584C103.057 213.896 104.065 215.704 104.385 218.008H98.5768C98.2248 216.248 96.8968 215.368 94.5928 215.368C93.4408 215.368 92.5448 215.592 91.9048 216.04C91.2968 216.488 90.9928 217.048 90.9928 217.72C90.9928 218.424 91.4568 218.984 92.3848 219.4C93.3128 219.816 94.5448 220.2 96.0808 220.552C97.7448 220.936 99.2648 221.368 100.641 221.848C102.049 222.296 103.169 222.984 104.001 223.912C104.833 224.808 105.249 226.104 105.249 227.8C105.281 229.272 104.897 230.6 104.097 231.784C103.297 232.968 102.145 233.896 100.641 234.568C99.1368 235.24 97.3608 235.576 95.3128 235.576ZM112.564 207.496C111.444 207.496 110.516 207.16 109.78 206.488C109.076 205.816 108.724 204.968 108.724 203.944C108.724 202.92 109.076 202.088 109.78 201.448C110.516 200.776 111.444 200.44 112.564 200.44C113.684 200.44 114.596 200.776 115.3 201.448C116.036 202.088 116.404 202.92 116.404 203.944C116.404 204.968 116.036 205.816 115.3 206.488C114.596 207.16 113.684 207.496 112.564 207.496ZM109.492 235V211.192H115.636V235H109.492ZM130.688 227.896C129.536 227.896 128.464 227.768 127.472 227.512L125.696 229.288C126.24 229.576 126.976 229.816 127.904 230.008C128.832 230.2 130.336 230.392 132.416 230.584C135.584 230.872 137.888 231.624 139.328 232.84C140.768 234.056 141.488 235.736 141.488 237.88C141.488 239.288 141.104 240.616 140.336 241.864C139.568 243.144 138.384 244.168 136.784 244.936C135.184 245.736 133.136 246.136 130.64 246.136C127.248 246.136 124.512 245.496 122.432 244.216C120.352 242.968 119.312 241.08 119.312 238.552C119.312 236.408 120.352 234.552 122.432 232.984C121.792 232.696 121.232 232.392 120.752 232.072C120.304 231.752 119.904 231.416 119.552 231.064V229.96L123.728 225.544C121.872 223.912 120.944 221.816 120.944 219.256C120.944 217.656 121.328 216.2 122.096 214.888C122.896 213.576 124.016 212.536 125.456 211.768C126.896 211 128.64 210.616 130.688 210.616C132.032 210.616 133.28 210.808 134.432 211.192H143.456V214.936L139.376 215.224C140.016 216.44 140.336 217.784 140.336 219.256C140.336 220.856 139.952 222.312 139.184 223.624C138.416 224.936 137.296 225.976 135.824 226.744C134.384 227.512 132.672 227.896 130.688 227.896ZM130.688 223.192C131.936 223.192 132.96 222.856 133.76 222.184C134.592 221.512 135.008 220.552 135.008 219.304C135.008 218.056 134.592 217.096 133.76 216.424C132.96 215.752 131.936 215.416 130.688 215.416C129.376 215.416 128.32 215.752 127.52 216.424C126.72 217.096 126.32 218.056 126.32 219.304C126.32 220.552 126.72 221.512 127.52 222.184C128.32 222.856 129.376 223.192 130.688 223.192ZM124.928 237.928C124.928 239.112 125.472 239.992 126.56 240.568C127.68 241.176 129.04 241.48 130.64 241.48C132.176 241.48 133.424 241.16 134.384 240.52C135.344 239.912 135.824 239.08 135.824 238.024C135.824 237.16 135.504 236.44 134.864 235.864C134.256 235.288 133.024 234.936 131.168 234.808C129.856 234.712 128.64 234.568 127.52 234.376C126.592 234.888 125.92 235.448 125.504 236.056C125.12 236.664 124.928 237.288 124.928 237.928ZM146.497 235V211.192H151.921L152.401 215.224C153.137 213.816 154.193 212.696 155.569 211.864C156.977 211.032 158.625 210.616 160.513 210.616C163.457 210.616 165.745 211.544 167.377 213.4C169.009 215.256 169.825 217.976 169.825 221.56V235H163.681V222.136C163.681 220.088 163.265 218.52 162.433 217.432C161.601 216.344 160.305 215.8 158.545 215.8C156.817 215.8 155.393 216.408 154.273 217.624C153.185 218.84 152.641 220.536 152.641 222.712V235H146.497Z" fill="black"/>
<defs>
<filter id="filter0_d_344_8406" x="1126" y="0" width="208" height="208" filterUnits="userSpaceOnUse" color-interpolation-filters="sRGB">
<feFlood flood-opacity="0" result="BackgroundImageFix"/>
<feColorMatrix in="SourceAlpha" type="matrix" values="0 0 0 0 0 0 0 0 0 0 0 0 0 0 0 0 0 0 127 0" result="hardAlpha"/>
<feOffset dy="4"/>
<feGaussianBlur stdDeviation="2"/>
<feComposite in2="hardAlpha" operator="out"/>
<feColorMatrix type="matrix" values="0 0 0 0 0 0 0 0 0 0 0 0 0 0 0 0 0 0 0.25 0"/>
<feBlend mode="normal" in2="BackgroundImageFix" result="effect1_dropShadow_344_8406"/>
<feBlend mode="normal" in="SourceGraphic" in2="effect1_dropShadow_344_8406" result="shape"/>
</filter>
</defs>
</svg>
