<svg width="1440" height="360" viewBox="0 0 1440 360" fill="none" xmlns="http://www.w3.org/2000/svg">
<path d="M929.594 195.083C926.719 195.084 924.52 197.615 925.176 200.359C931.61 227.287 952.491 249.89 995.08 249.89C1026.52 249.89 1047.27 236.84 1056.65 220.088C1057.52 218.538 1059.14 217.509 1060.95 217.509H1106.61C1109.66 217.509 1111.89 220.354 1110.95 223.203C1094.76 272.189 1047.03 291.862 995.15 291.862C933.147 291.862 868.302 258.271 868.302 179.511C868.302 100.75 932.262 67.1592 994.684 67.1592C1056.91 67.1592 1121.48 103.927 1117.32 190.753C1117.2 193.147 1115.16 195.039 1112.72 195.04L929.594 195.083ZM928.296 149.253C927.111 152.107 929.352 155.099 932.496 155.099H1054.4C1057.43 155.099 1059.66 152.301 1058.71 149.48C1050.99 126.548 1032.45 108.743 994.684 108.743C959.021 108.743 937.776 126.43 928.296 149.253Z" fill="#008FF5"/>
<path d="M1364 147.427V287.547C1364 288.808 1362.96 289.83 1361.67 289.83H1303.77C1302.48 289.83 1301.44 288.808 1301.44 287.547V162.75C1301.44 136.945 1286.2 114.795 1247.5 114.795C1208.8 114.795 1191.58 137.79 1191.58 162.75V287.547C1191.58 288.808 1190.53 289.83 1189.25 289.83H1131.28C1129.99 289.83 1128.95 288.808 1128.95 287.547V77.093C1128.95 75.8318 1129.99 74.8094 1131.28 74.8094H1189.2C1190.49 74.8094 1191.53 75.8318 1191.53 77.093V97.9552C1191.53 100.175 1194.59 101.207 1196.12 99.5709C1208.31 86.5527 1233.86 69.2832 1274.67 69.2832C1331.08 69.2832 1364 98.9696 1364 147.427Z" fill="#008FF5"/>
<path d="M265.828 71.4736C263.254 71.4736 261.168 73.5184 261.168 76.0408V117.832C261.168 119.728 259.973 121.427 258.165 122.101L144.995 164.297C141.945 165.435 138.678 163.227 138.678 160.029V76.0408C138.678 73.5184 136.592 71.4736 134.018 71.4736H80.6601C78.0864 71.4736 76 73.5184 76 76.0408V282.955C76 285.477 78.0864 287.522 80.6601 287.522H134.018C136.592 287.522 138.678 285.477 138.678 282.955V230.407C138.678 228.512 139.873 226.813 141.681 226.139L274.095 176.751C278.431 175.134 282.253 180.044 279.514 183.715L262.066 207.101C261.483 207.883 261.168 208.827 261.168 209.797V282.955C261.168 285.477 263.254 287.522 265.828 287.522H319.186C321.76 287.522 323.846 285.477 323.846 282.955V76.0408C323.846 73.5184 321.76 71.4736 319.186 71.4736H265.828Z" fill="#008FF5"/>
<path d="M609.88 179.647C609.88 96.9364 536.205 66.9988 472.595 66.9988C408.984 66.9988 335.285 96.9364 335.285 179.647C335.285 262.358 408.984 291.999 472.595 291.999C494.94 291.999 533.176 281.768 533.176 281.768C534.967 281.262 536.857 281.184 538.685 281.542C540.514 281.899 542.228 282.682 543.684 283.824C546.717 286.275 550.518 287.63 554.449 287.66H602.82C606.665 287.66 607.667 285.376 605.15 282.659L584.18 260.577C582.899 259.125 582.133 257.305 581.999 255.39C581.865 253.475 582.368 251.569 583.434 249.958C583.434 249.958 609.88 212.987 609.88 179.647ZM541.284 207.05C540.049 210.612 536.904 211.275 534.294 208.489L528.352 202.209C525.207 199.22 521.075 197.43 516.702 197.162H467.934C464.09 197.162 463.088 199.446 465.604 202.163L515.467 254.023C518.1 256.763 517.331 257.882 513.766 256.489L496.058 249.684C491.747 248.205 487.166 247.629 482.614 247.994C479.278 248.334 475.925 248.494 472.571 248.474C425.668 248.474 398.895 222.281 398.895 179.647C398.895 137.013 425.668 110.524 472.595 110.524C519.521 110.524 546.27 137.059 546.27 179.647C545.909 188.986 544.231 198.231 541.284 207.119V207.05Z" fill="#008FF5"/>
<path d="M720.527 243.7C718.443 243.7 717.407 241.225 718.89 239.791L853.024 110.097C853.468 109.668 853.717 109.083 853.717 108.472V73.7572C853.717 72.496 852.674 71.4736 851.387 71.4736H629.638C628.351 71.4736 627.308 72.496 627.308 73.7572V113.012C627.308 114.273 628.351 115.295 629.638 115.295H732.486H760.516H785.23C787.88 115.295 788.474 118.94 785.955 119.749L741.393 134.059C741.052 134.169 740.74 134.355 740.484 134.602L622.015 248.875C621.57 249.305 621.32 249.891 621.32 250.503V285.238C621.32 286.5 622.363 287.522 623.65 287.522H854.533C855.82 287.522 856.863 286.5 856.863 285.238V245.984C856.863 244.723 855.82 243.7 854.533 243.7H720.527Z" fill="#008FF5"/>
</svg>
